<svg xmlns:dc="http://purl.org/dc/elements/1.1/" xmlns:cc="http://creativecommons.org/ns#" xmlns:rdf="http://www.w3.org/1999/02/22-rdf-syntax-ns#" xmlns:svg="http://www.w3.org/2000/svg" xmlns="http://www.w3.org/2000/svg" xmlns:sodipodi="http://sodipodi.sourceforge.net/DTD/sodipodi-0.dtd" xmlns:inkscape="http://www.inkscape.org/namespaces/inkscape" version="1.1" x="0px" y="0px" viewBox="0 0 100 125"><g transform="translate(0,-952.36218)"><g transform="matrix(0.13794725,0,0,0.13794725,-5.2935097,924.95886)"><path style="" d="m 618.10714,807.55705 c 0.6875,-0.27741 1.8125,-0.27741 2.5,0 0.6875,0.27741 0.125,0.50439 -1.25,0.50439 -1.375,0 -1.9375,-0.22698 -1.25,-0.50439 z m -62.98834,-8.04498 c 1.24391,-0.23919 3.04391,-0.23011 4,0.0202 0.95609,0.25029 -0.0617,0.446 -2.26166,0.4349 -2.2,-0.0111 -2.98225,-0.21589 -1.73834,-0.45508 z m -73.88922,-43.04274 c -1.24387,-1.58606 -1.2085,-1.62143 0.37756,-0.37756 1.66575,1.30637 2.19548,2.12756 1.37244,2.12756 -0.20765,0 -0.99515,-0.7875 -1.75,-1.75 z m 121.94006,-1.93311 c 0.72187,-0.28887 1.58438,-0.25335 1.91667,0.0789 0.33229,0.33229 -0.25834,0.56864 -1.3125,0.52522 -1.16495,-0.048 -1.4019,-0.28494 -0.60417,-0.60416 z m -98.8125,-4.31689 c -0.90129,-0.58246 -1.02463,-0.97549 -0.30902,-0.98469 0.65504,-0.008 1.4691,0.43469 1.80902,0.98469 0.7673,1.24153 0.42112,1.24153 -1.5,0 z m 79,-49.37756 c 0,-0.20765 0.7875,-0.99515 1.75,-1.75 1.58606,-1.24387 1.62143,-1.2085 0.37756,0.37756 -1.30637,1.66575 -2.12756,2.19548 -2.12756,1.37244 z m -109.84211,-5.62244 c 0,-1.375 0.22698,-1.9375 0.50439,-1.25 0.27741,0.6875 0.27741,1.8125 0,2.5 -0.27741,0.6875 -0.50439,0.125 -0.50439,-1.25 z m 0.4064,-8.70687 c -0.54268,-1.4252 -0.42782,-1.54006 0.5598,-0.5598 0.68342,0.67834 0.99067,1.48524 0.68278,1.79313 -0.30789,0.30789 -0.86705,-0.24711 -1.24258,-1.23333 z M 371.43609,685.636 c 0.048,-1.16495 0.28494,-1.4019 0.60416,-0.60417 0.28887,0.72187 0.25335,1.58438 -0.0789,1.91667 -0.33229,0.33229 -0.56864,-0.25834 -0.52522,-1.3125 z m 114,-11 c 0.048,-1.16495 0.28494,-1.4019 0.60416,-0.60417 0.28887,0.72187 0.25335,1.58438 -0.0789,1.91667 -0.33229,0.33229 -0.56864,-0.25834 -0.52522,-1.3125 z m -30.07895,-16.79423 c 0,-0.20765 0.7875,-0.99515 1.75,-1.75 1.58606,-1.24387 1.62143,-1.2085 0.37756,0.37756 -1.30637,1.66575 -2.12756,2.19548 -2.12756,1.37244 z m -293.38691,-7.80542 c 0.28881,-0.4673 0.94401,-0.59075 1.45601,-0.27431 1.30838,0.80862 1.16106,1.12396 -0.52511,1.12396 -0.80081,0 -1.21971,-0.38234 -0.9309,-0.84965 z m 285.5448,-0.81702 c 0,-1.375 0.22698,-1.9375 0.50439,-1.25 0.27741,0.6875 0.27741,1.8125 0,2.5 -0.27741,0.6875 -0.50439,0.125 -0.50439,-1.25 z m -63.15789,-0.37756 c 0,-0.20765 0.7875,-0.99515 1.75,-1.75 1.58606,-1.24387 1.62143,-1.2085 0.37756,0.37756 -1.30637,1.66575 -2.12756,2.19548 -2.12756,1.37244 z m 5,-5 c 0,-0.20765 0.7875,-0.99515 1.75,-1.75 1.58606,-1.24387 1.62143,-1.2085 0.37756,0.37756 -1.30637,1.66575 -2.12756,2.19548 -2.12756,1.37244 z m 206.8125,-3.30555 c 0.72187,-0.28887 1.58438,-0.25335 1.91667,0.0789 0.33229,0.33229 -0.25834,0.56864 -1.3125,0.52522 -1.16495,-0.048 -1.4019,-0.28494 -0.60417,-0.60416 z m -289,-25 c 0.72187,-0.28887 1.58437,-0.25335 1.91667,0.0789 0.33229,0.33229 -0.25834,0.56864 -1.3125,0.52522 -1.16495,-0.048 -1.4019,-0.28494 -0.60417,-0.60416 z M 576.81602,595.1528 c -0.36253,-0.58659 -0.44468,-1.281 -0.18255,-1.54313 0.26212,-0.26213 0.74306,0.21781 1.06875,1.06653 0.67618,1.76211 0.0998,2.07206 -0.8862,0.4766 z m -371.45888,-0.81801 c 0,-0.89777 3.00488,-2.44391 3.59765,-1.85114 0.17127,0.17126 -0.56814,0.86067 -1.64313,1.53201 -1.07499,0.67134 -1.95452,0.81495 -1.95452,0.31913 z m 418,-49.11546 c -0.90129,-0.58246 -1.02463,-0.97549 -0.30902,-0.98469 0.65504,-0.008 1.4691,0.43469 1.80902,0.98469 0.7673,1.24153 0.42112,1.24153 -1.5,0 z m 4.75,-11.66228 c 0.6875,-0.27741 1.8125,-0.27741 2.5,0 0.6875,0.27741 0.125,0.50439 -1.25,0.50439 -1.375,0 -1.9375,-0.22698 -1.25,-0.50439 z m -424.9375,-7.02083 c 0.72187,-0.28887 1.58437,-0.25335 1.91667,0.0789 0.33229,0.33229 -0.25834,0.56864 -1.3125,0.52522 -1.16495,-0.048 -1.4019,-0.28494 -0.60417,-0.60416 z m -128.8125,-1.25787 c 0,-0.51754 0.444846,-1.21592 0.988546,-1.55194 0.56686,-0.35034 0.734507,0.0511 0.393011,0.94098 -0.664791,1.73242 -1.381557,2.04939 -1.381557,0.61096 z m 525,-6.55902 c -2.42903,-2.475 -4.19142,-4.5 -3.91642,-4.5 0.275,0 2.48739,2.025 4.91642,4.5 2.42903,2.475 4.19142,4.5 3.91642,4.5 -0.275,0 -2.48739,-2.025 -4.91642,-4.5 z m -42.1875,0.81689 c 0.72187,-0.28887 1.58438,-0.25335 1.91667,0.0789 0.33229,0.33229 -0.25834,0.56864 -1.3125,0.52522 -1.16495,-0.048 -1.4019,-0.28494 -0.60417,-0.60416 z m 3.1875,-6.69445 c 0,-0.20765 0.7875,-0.99515 1.75,-1.75 1.58606,-1.24387 1.62143,-1.2085 0.37756,0.37756 -1.30637,1.66575 -2.12756,2.19548 -2.12756,1.37244 z M 206.81602,511.1528 c -1.02606,-1.66021 -0.10511,-1.89043 1.33055,-0.33261 0.70918,0.76953 0.84824,1.39914 0.30901,1.39914 -0.53922,0 -1.27702,-0.47994 -1.63956,-1.06653 z m -16.45888,-5.32648 c 0,-0.21616 0.69837,-0.661 1.55194,-0.98855 0.88992,-0.34149 1.29132,-0.17385 0.94098,0.39301 -0.58726,0.95021 -2.49292,1.40545 -2.49292,0.59554 z m 14.73333,-10.73108 c 0.67834,-0.68342 1.48524,-0.99067 1.79313,-0.68278 0.30789,0.30789 -0.24711,0.86705 -1.23333,1.24258 -1.4252,0.54268 -1.54006,0.42782 -0.5598,-0.5598 z M 639.43609,491.636 c 0.048,-1.16495 0.28494,-1.4019 0.60416,-0.60417 0.28887,0.72187 0.25335,1.58437 -0.0789,1.91667 -0.33229,0.33229 -0.56864,-0.25834 -0.52522,-1.3125 z m -3.20651,-23.16667 c -1.24387,-1.58606 -1.2085,-1.62143 0.37756,-0.37756 1.66575,1.30637 2.19548,2.12756 1.37244,2.12756 -0.20765,0 -0.99515,-0.7875 -1.75,-1.75 z m -6.43535,-25.5 -2.93709,-3.25 3.25,2.93709 c 1.7875,1.6154 3.25,3.0779 3.25,3.25 0,0.77256 -0.82513,0.0924 -3.56291,-2.93709 z m -16.56465,-0.5 c -1.24387,-1.58606 -1.2085,-1.62143 0.37756,-0.37756 1.66575,1.30637 2.19548,2.12756 1.37244,2.12756 -0.20765,0 -0.99515,-0.7875 -1.75,-1.75 z m 2,-5 c -1.24387,-1.58606 -1.2085,-1.62143 0.37756,-0.37756 1.66575,1.30637 2.19548,2.12756 1.37244,2.12756 -0.20765,0 -0.99515,-0.7875 -1.75,-1.75 z m 65.56465,-3.5 -2.93709,-3.25 3.25,2.93709 c 1.7875,1.6154 3.25,3.0779 3.25,3.25 0,0.77256 -0.82513,0.0924 -3.56291,-2.93709 z m 8.64186,-0.33333 c 0.048,-1.16495 0.28494,-1.4019 0.60416,-0.60417 0.28887,0.72187 0.25335,1.58437 -0.0789,1.91667 -0.33229,0.33229 -0.56864,-0.25834 -0.52522,-1.3125 z m -85.07895,-7.47569 c 0,-0.58246 0.45,-0.7809 1,-0.44098 0.55,0.33992 1,0.81648 1,1.05902 0,0.24254 -0.45,0.44098 -1,0.44098 -0.55,0 -1,-0.47656 -1,-1.05902 z m 2.92431,-5.69098 -2.42431,-2.75 2.75,2.42431 c 1.5125,1.33338 2.75,2.57088 2.75,2.75 0,0.78428 -0.8098,0.14598 -3.07569,-2.42431 z m 54.48068,-3.5 -1.90499,-2.25 2.25,1.90499 c 2.11444,1.79022 2.70524,2.59501 1.90499,2.59501 -0.18976,0 -1.20226,-1.0125 -2.25,-2.25 z m -84.89545,0.23457 c 0.59434,-0.96167 0.36276,-1.14954 -0.8455,-0.68589 -0.91522,0.3512 -1.66404,0.20267 -1.66404,-0.33006 0,-1.23765 2.69751,-1.26707 3.45729,-0.0377 0.31644,0.512 0.0485,1.25653 -0.59549,1.65451 -0.78484,0.48506 -0.90097,0.28698 -0.35226,-0.60084 z m -1.94525,-18.2777 c 0.37553,-0.98622 0.93469,-1.54122 1.24258,-1.23333 0.30789,0.30789 6.4e-4,1.11479 -0.68278,1.79313 -0.98762,0.98026 -1.10248,0.8654 -0.5598,-0.5598 z m 80.51466,-14.2902 c 0.048,-1.16495 0.28494,-1.4019 0.60416,-0.60417 0.28887,0.72187 0.25335,1.58437 -0.0789,1.91667 -0.33229,0.33229 -0.56864,-0.25834 -0.52522,-1.3125 z m 1.32604,-7.66667 -1.90499,-2.25 2.25,1.90499 c 1.2375,1.04774 2.25,2.06024 2.25,2.25 0,0.80025 -0.80479,0.20945 -2.59501,-1.90499 z m -24.59249,-1.43311 c 0.72187,-0.28887 1.58438,-0.25335 1.91667,0.0789 0.33229,0.3323 -0.25834,0.56864 -1.3125,0.52522 -1.16495,-0.048 -1.4019,-0.28494 -0.60417,-0.60416 z m 3.9375,0.0208 c 0.6875,-0.27741 1.8125,-0.27741 2.5,0 0.6875,0.27741 0.125,0.50439 -1.25,0.50439 -1.375,0 -1.9375,-0.22698 -1.25,-0.50439 z M 248.45753,340.92385 c -1.26492,-2.10631 -1.24361,-2.12762 0.47833,-0.47833 0.99123,0.9494 1.58698,1.94144 1.3239,2.20452 -0.26308,0.26308 -1.07408,-0.5137 -1.80223,-1.72619 z m 9.89961,-3.20452 c -1.375,-0.78602 -2.02351,-1.44507 -1.44113,-1.46456 0.58238,-0.0195 1.93238,0.62525 3,1.43276 2.46898,1.86744 1.68038,1.88352 -1.55887,0.0318 z m -14.25,-2.16228 c 0.6875,-0.27741 1.8125,-0.27741 2.5,0 0.6875,0.27741 0.125,0.50439 -1.25,0.50439 -1.375,0 -1.9375,-0.22698 -1.25,-0.50439 z m 386.76008,-0.35403 c 0.34546,-0.55897 1.04702,-0.75742 1.55902,-0.44099 1.38704,0.85725 1.12841,1.4573 -0.62812,1.4573 -0.85746,0 -1.27636,-0.45734 -0.9309,-1.01631 z m -39.76008,-3.68942 c 1.2375,-0.23836 3.2625,-0.23836 4.5,0 1.2375,0.23835 0.225,0.43337 -2.25,0.43337 -2.475,0 -3.4875,-0.19502 -2.25,-0.43337 z m 12,0 c 1.2375,-0.23836 3.2625,-0.23836 4.5,0 1.2375,0.23835 0.225,0.43337 -2.25,0.43337 -2.475,0 -3.4875,-0.19502 -2.25,-0.43337 z m -53.48625,-7.01185 c 1.52006,-0.22986 3.77006,-0.22371 5,0.0136 1.22994,0.23736 -0.0138,0.42542 -2.76375,0.41792 -2.75,-0.007 -3.75631,-0.20172 -2.23625,-0.43157 z m -306.97386,-3.0821 c -0.85944,-0.54619 -0.56965,-1.16788 1,-2.14534 1.9462,-1.21195 2.06188,-1.19686 0.96879,0.12637 -0.68273,0.82647 -0.94523,1.79876 -0.58334,2.16066 0.88646,0.88645 0.10689,0.80673 -1.38545,-0.14169 z m 241.52261,-7.88343 c 0.72187,-0.28888 1.58438,-0.25335 1.91667,0.0789 0.33229,0.33229 -0.25834,0.56864 -1.3125,0.52522 -1.16495,-0.048 -1.4019,-0.28494 -0.60417,-0.60417 z m -218.07917,-4.44098 c 0.67834,-0.68342 1.48524,-0.99067 1.79313,-0.68278 0.30789,0.30788 -0.24711,0.86705 -1.23333,1.24258 -1.4252,0.54268 -1.54006,0.42782 -0.5598,-0.5598 z" fill="#d0d0d0"/><path style="" d="m 559.16964,804.53622 c 0.72187,-0.28887 1.58438,-0.25335 1.91667,0.0789 0.33229,0.33229 -0.25834,0.56864 -1.3125,0.52522 -1.16495,-0.048 -1.4019,-0.28494 -0.60417,-0.60416 z m 38.34539,-17.31689 c 0,-1.375 0.22698,-1.9375 0.50439,-1.25 0.27741,0.6875 0.27741,1.8125 0,2.5 -0.27741,0.6875 -0.50439,0.125 -0.50439,-1.25 z M 593.43609,758.636 c 0.048,-1.16495 0.28494,-1.4019 0.60416,-0.60417 0.28887,0.72187 0.25335,1.58438 -0.0789,1.91667 -0.33229,0.33229 -0.56864,-0.25834 -0.52522,-1.3125 z m 12.73355,-4.09978 c 0.72187,-0.28887 1.58438,-0.25335 1.91667,0.0789 0.33229,0.33229 -0.25834,0.56864 -1.3125,0.52522 -1.16495,-0.048 -1.4019,-0.28494 -0.60417,-0.60416 z m -18.88819,-7.06689 -2.42431,-2.75 2.75,2.42431 c 1.5125,1.33338 2.75,2.57088 2.75,2.75 0,0.78428 -0.8098,0.14598 -3.07569,-2.42431 z m -89.05187,-28 c -1.24387,-1.58606 -1.2085,-1.62143 0.37756,-0.37756 0.9625,0.75485 1.75,1.54235 1.75,1.75 0,0.82304 -0.82119,0.29331 -2.12756,-1.37244 z m 120.12756,-24.19098 c 0,-0.51754 0.44485,-1.21592 0.98855,-1.55194 0.56686,-0.35034 0.7345,0.0511 0.39301,0.94098 -0.66479,1.73242 -1.38156,2.04939 -1.38156,0.61096 z m -2.12756,-13.80902 c -1.24387,-1.58606 -1.2085,-1.62143 0.37756,-0.37756 1.66575,1.30637 2.19548,2.12756 1.37244,2.12756 -0.20765,0 -0.99515,-0.7875 -1.75,-1.75 z M 371.43609,661.636 c 0.048,-1.16495 0.28494,-1.4019 0.60416,-0.60417 0.28887,0.72187 0.25335,1.58438 -0.0789,1.91667 -0.33229,0.33229 -0.56864,-0.25834 -0.52522,-1.3125 z m -258.2065,-80.16667 c -1.24388,-1.58606 -1.20851,-1.62143 0.37755,-0.37756 0.9625,0.75485 1.75,1.54235 1.75,1.75 0,0.82304 -0.82119,0.29331 -2.12755,-1.37244 z m 470.28544,-13.25 c 0,-1.375 0.22698,-1.9375 0.50439,-1.25 0.27741,0.6875 0.27741,1.8125 0,2.5 -0.27741,0.6875 -0.50439,0.125 -0.50439,-1.25 z M 557.81602,538.1528 c -0.36253,-0.58659 -0.44468,-1.281 -0.18255,-1.54313 0.26212,-0.26213 0.74306,0.21781 1.06875,1.06653 0.67618,1.76211 0.0999,2.07206 -0.8862,0.4766 z m -443.95888,-4.93347 c -0.33992,-0.55 -0.14148,-1 0.44098,-1 0.58246,0 1.05902,0.45 1.05902,1 0,0.55 -0.19844,1 -0.44098,1 -0.24254,0 -0.7191,-0.45 -1.05902,-1 z m 527.5,-9.94098 c 0,-0.51754 0.44485,-1.21592 0.98855,-1.55194 0.56686,-0.35034 0.7345,0.0511 0.39301,0.94098 -0.66479,1.73242 -1.38156,2.04939 -1.38156,0.61096 z m 5.54271,-24.98992 c -0.31644,-0.512 -0.19299,-1.1672 0.27431,-1.45601 0.46731,-0.28881 0.84965,0.13009 0.84965,0.9309 0,1.68617 -0.31534,1.83349 -1.12396,0.52511 z M 440.96015,430.386 c -0.28327,-0.45834 0.12038,-0.83334 0.89699,-0.83334 0.77661,0 1.18026,0.375 0.89699,0.83334 -0.28326,0.45833 -0.68691,0.83333 -0.89699,0.83333 -0.21008,0 -0.61373,-0.375 -0.89699,-0.83333 z m 216.80198,-17.41667 -1.90499,-2.25 2.25,1.90499 c 2.11444,1.79022 2.70524,2.59501 1.90499,2.59501 -0.18976,0 -1.20226,-1.0125 -2.25,-2.25 z m -44.59249,-24.43311 c 0.72187,-0.28887 1.58438,-0.25335 1.91667,0.0789 0.33229,0.3323 -0.25834,0.56864 -1.3125,0.52522 -1.16495,-0.048 -1.4019,-0.28494 -0.60417,-0.60416 z m -15.0625,-56.97917 c 0.6875,-0.27741 1.8125,-0.27741 2.5,0 0.6875,0.27741 0.125,0.50439 -1.25,0.50439 -1.375,0 -1.9375,-0.22698 -1.25,-0.50439 z m 22.76008,-0.35403 c 0.34546,-0.55897 1.04702,-0.75742 1.55902,-0.44098 1.38704,0.85724 1.12841,1.45729 -0.62812,1.45729 -0.85746,0 -1.27636,-0.45734 -0.9309,-1.01631 z M 239.43609,328.636 c 0.048,-1.16495 0.28494,-1.4019 0.60416,-0.60417 0.28887,0.72188 0.25335,1.58438 -0.0789,1.91667 -0.3323,0.33229 -0.56864,-0.25834 -0.52522,-1.3125 z m 317.67105,-4.07895 c 0.6875,-0.27741 1.8125,-0.27741 2.5,0 0.6875,0.27741 0.125,0.50439 -1.25,0.50439 -1.375,0 -1.9375,-0.22698 -1.25,-0.50439 z M 401.22958,312.46933 c -1.26951,-1.61876 -1.22245,-1.63998 0.62756,-0.28297 1.1,0.80687 2.1875,1.59437 2.41667,1.75 0.22916,0.15563 -0.0532,0.28297 -0.62756,0.28297 -0.57432,0 -1.66182,-0.7875 -2.41667,-1.75 z m 78.94006,-1.93311 c 0.72187,-0.28888 1.58438,-0.25335 1.91667,0.0789 0.33229,0.33229 -0.25834,0.56864 -1.3125,0.52522 -1.16495,-0.048 -1.4019,-0.28494 -0.60417,-0.60417 z M 344.62617,296.52634 c 0.97297,-0.25354 2.32297,-0.23687 3,0.0371 0.67703,0.27392 -0.11903,0.48137 -1.76903,0.46099 -1.65,-0.0204 -2.20394,-0.2445 -1.23097,-0.49804 z" fill="#afafaf"/><path style="" d="m 601.16964,812.53622 c 0.72187,-0.28887 1.58438,-0.25335 1.91667,0.0789 0.33229,0.33229 -0.25834,0.56864 -1.3125,0.52522 -1.16495,-0.048 -1.4019,-0.28494 -0.60417,-0.60416 z m -3.65461,-29.31689 c 0,-1.375 0.22698,-1.9375 0.50439,-1.25 0.27741,0.6875 0.27741,1.8125 0,2.5 -0.27741,0.6875 -0.50439,0.125 -0.50439,-1.25 z M 582.43609,756.636 c 0.048,-1.16495 0.28494,-1.4019 0.60416,-0.60417 0.28887,0.72187 0.25335,1.58438 -0.0789,1.91667 -0.33229,0.33229 -0.56864,-0.25834 -0.52522,-1.3125 z m -119.15464,-25.16667 -2.42431,-2.75 2.75,2.42431 c 2.57029,2.26589 3.20859,3.07569 2.42431,3.07569 -0.17912,0 -1.41662,-1.2375 -2.75,-2.75 z m 2.88819,-7.93311 c 0.72187,-0.28887 1.58438,-0.25335 1.91667,0.0789 0.33229,0.33229 -0.25834,0.56864 -1.3125,0.52522 -1.16495,-0.048 -1.4019,-0.28494 -0.60417,-0.60416 z M 623.96015,723.386 c -0.28327,-0.45834 0.12038,-0.83334 0.89699,-0.83334 0.77661,0 1.18026,0.375 0.89699,0.83334 -0.28326,0.45833 -0.68691,0.83333 -0.89699,0.83333 -0.21008,0 -0.61373,-0.375 -0.89699,-0.83333 z m -19.14413,-10.2332 c -0.36253,-0.58659 -0.44468,-1.281 -0.18255,-1.54313 0.26212,-0.26213 0.74306,0.21781 1.06875,1.06653 0.67618,1.76211 0.0998,2.07206 -0.8862,0.4766 z m 6.62445,-2.21644 c 0.22917,-0.15563 1.31667,-0.94313 2.41667,-1.75 1.85001,-1.35701 1.89707,-1.33579 0.62756,0.28297 -0.75485,0.9625 -1.84235,1.75 -2.41667,1.75 -0.57432,0 -0.85672,-0.12734 -0.62756,-0.28297 z m -302.67834,-89.96703 -1.90499,-2.25 2.25,1.90499 c 2.11444,1.79022 2.70524,2.59501 1.90499,2.59501 -0.18976,0 -1.20226,-1.0125 -2.25,-2.25 z m -82.40499,-19.12756 c 0,-0.20765 0.7875,-0.99515 1.75,-1.75 1.58606,-1.24387 1.62143,-1.2085 0.37756,0.37756 -1.30637,1.66575 -2.12756,2.19548 -2.12756,1.37244 z m 38.75,-2.28472 c 0.6875,-0.27741 1.8125,-0.27741 2.5,0 0.6875,0.27741 0.125,0.50439 -1.25,0.50439 -1.375,0 -1.9375,-0.22698 -1.25,-0.50439 z M 203.43609,502.636 c 0.048,-1.16495 0.28494,-1.4019 0.60416,-0.60417 0.28887,0.72187 0.25335,1.58437 -0.0789,1.91667 -0.3323,0.33229 -0.56864,-0.25834 -0.52522,-1.3125 z m 483.65438,-84.54076 c 0.67834,-0.68342 1.48524,-0.99067 1.79313,-0.68278 0.30789,0.30789 -0.24711,0.86705 -1.23333,1.24258 -1.4252,0.54268 -1.54006,0.42782 -0.5598,-0.5598 z m -37.19062,-18.80681 c -0.31644,-0.512 -0.19299,-1.1672 0.27431,-1.45601 0.46731,-0.28881 0.84965,0.13009 0.84965,0.9309 0,1.68617 -0.31534,1.83349 -1.12396,0.52511 z m -51.27896,-9.78668 c 1.52006,-0.22986 3.77006,-0.22371 5,0.0136 1.22994,0.23736 -0.0137,0.42542 -2.76375,0.41792 -2.75,-0.008 -3.75631,-0.20172 -2.23625,-0.43157 z M 562.10714,324.5136 c 1.2375,-0.23836 3.2625,-0.23836 4.5,0 1.2375,0.23835 0.225,0.43337 -2.25,0.43337 -2.475,0 -3.4875,-0.19502 -2.25,-0.43337 z m -73.1659,-3.93571 c -0.52667,-1.37248 -0.38034,-1.43434 0.89301,-0.37756 1.73524,1.44013 1.91584,2.019 0.62988,2.019 -0.49116,0 -1.17646,-0.73865 -1.52289,-1.64144 z m -234.31507,-9.05155 c 0.97297,-0.25354 2.32297,-0.23687 3,0.0371 0.67703,0.27392 -0.11903,0.48137 -1.76903,0.46099 -1.65,-0.0204 -2.20394,-0.2445 -1.23097,-0.49804 z m 15.54347,-0.99012 c 0.72187,-0.28888 1.58437,-0.25335 1.91667,0.0789 0.33229,0.33229 -0.25834,0.56864 -1.3125,0.52522 -1.16495,-0.048 -1.4019,-0.28494 -0.60417,-0.60417 z m 29,-12 c 0.72187,-0.28888 1.58437,-0.25335 1.91667,0.0789 0.33229,0.33229 -0.25834,0.56864 -1.3125,0.52522 -1.16495,-0.048 -1.4019,-0.28494 -0.60417,-0.60417 z m 15,-1 c 0.72187,-0.28888 1.58438,-0.25335 1.91667,0.0789 0.33229,0.33229 -0.25834,0.56864 -1.3125,0.52522 -1.16495,-0.048 -1.4019,-0.28494 -0.60417,-0.60417 z m 35.94916,-1.02415 c 1.24391,-0.23919 3.04391,-0.23011 4,0.0202 0.95609,0.25029 -0.0617,0.446 -2.26166,0.4349 -2.2,-0.0111 -2.98225,-0.21589 -1.73834,-0.45508 z m -52.94916,-8.97585 c 0.72187,-0.28888 1.58437,-0.25335 1.91667,0.0789 0.33229,0.33229 -0.25834,0.56864 -1.3125,0.52522 -1.16495,-0.048 -1.4019,-0.28494 -0.60417,-0.60417 z" fill="#8f8f8f"/><path style="" d="m 597.10714,812.55705 c 0.6875,-0.27741 1.8125,-0.27741 2.5,0 0.6875,0.27741 0.125,0.50439 -1.25,0.50439 -1.375,0 -1.9375,-0.22698 -1.25,-0.50439 z m -262.75,-69.72109 c 0,-0.21085 0.90062,-0.61888 2.00138,-0.90674 1.10076,-0.28785 1.7492,-0.11534 1.44098,0.38337 -0.53825,0.87091 -3.44236,1.31244 -3.44236,0.52337 z M 383.43609,712.636 c 0.048,-1.16495 0.28494,-1.4019 0.60416,-0.60417 0.28887,0.72187 0.25335,1.58438 -0.0789,1.91667 -0.33229,0.33229 -0.56864,-0.25834 -0.52522,-1.3125 z m 228.42813,-19.40522 c -0.35034,-0.56686 0.0511,-0.7345 0.94098,-0.39301 1.73242,0.66479 2.04939,1.38156 0.61096,1.38156 -0.51754,0 -1.21592,-0.44485 -1.55194,-0.98855 z m -17.94279,-22.71832 c -0.54268,-1.4252 -0.42782,-1.54006 0.5598,-0.5598 0.68342,0.67834 0.99067,1.48524 0.68278,1.79313 -0.30789,0.30789 -0.86705,-0.24711 -1.24258,-1.23333 z M 589.43609,650.636 c 0.048,-1.16495 0.28494,-1.4019 0.60416,-0.60417 0.28887,0.72187 0.25335,1.58438 -0.0789,1.91667 -0.33229,0.33229 -0.56864,-0.25834 -0.52522,-1.3125 z m -73.15464,-2.16667 -2.42431,-2.75 2.75,2.42431 c 2.57029,2.26589 3.20859,3.07569 2.42431,3.07569 -0.17912,0 -1.41662,-1.2375 -2.75,-2.75 z M 404.43609,624.636 c 0.048,-1.16495 0.28494,-1.4019 0.60416,-0.60417 0.28887,0.72187 0.25335,1.58438 -0.0789,1.91667 -0.33229,0.33229 -0.56864,-0.25834 -0.52522,-1.3125 z M 279.10714,598.55705 c 0.6875,-0.27741 1.8125,-0.27741 2.5,0 0.6875,0.27741 0.125,0.50439 -1.25,0.50439 -1.375,0 -1.9375,-0.22698 -1.25,-0.50439 z m -89.87756,-26.08772 c -1.24387,-1.58606 -1.2085,-1.62143 0.37756,-0.37756 0.9625,0.75485 1.75,1.54235 1.75,1.75 0,0.82304 -0.82119,0.29331 -2.12756,-1.37244 z M 131.60714,499.53 c 0.9625,-0.25152 2.5375,-0.25152 3.5,0 0.9625,0.25153 0.175,0.45733 -1.75,0.45733 -1.925,0 -2.7125,-0.2058 -1.75,-0.45733 z m 68.82895,-4.894 c 0.048,-1.16495 0.28494,-1.4019 0.60416,-0.60417 0.28887,0.72187 0.25335,1.58437 -0.0789,1.91667 -0.3323,0.33229 -0.56864,-0.25834 -0.52522,-1.3125 z m 443,-12 c 0.048,-1.16495 0.28494,-1.4019 0.60416,-0.60417 0.28887,0.72187 0.25335,1.58437 -0.0789,1.91667 -0.33229,0.33229 -0.56864,-0.25834 -0.52522,-1.3125 z m -26,-17 c 0.048,-1.16495 0.28494,-1.4019 0.60416,-0.60417 0.28887,0.72187 0.25335,1.58437 -0.0789,1.91667 -0.33229,0.33229 -0.56864,-0.25834 -0.52522,-1.3125 z m 1.79349,-32.16667 c -1.24387,-1.58606 -1.2085,-1.62143 0.37756,-0.37756 1.66575,1.30637 2.19548,2.12756 1.37244,2.12756 -0.20765,0 -0.99515,-0.7875 -1.75,-1.75 z m 26.63464,-52.23855 c -0.35034,-0.56686 0.0511,-0.7345 0.94098,-0.39301 1.73242,0.66479 2.04939,1.38156 0.61096,1.38156 -0.51754,0 -1.21592,-0.44485 -1.55194,-0.98855 z m 61.30542,-26.69456 c 0.72187,-0.28888 1.58438,-0.25335 1.91667,0.0789 0.33229,0.33229 -0.25834,0.56864 -1.3125,0.52522 -1.16495,-0.048 -1.4019,-0.28494 -0.60417,-0.60417 z m -460.8125,-31.37591 c 0,-0.58246 0.45,-0.7809 1,-0.44098 0.55,0.33992 1,0.81648 1,1.05902 0,0.24254 -0.45,0.44098 -1,0.44098 -0.55,0 -1,-0.47656 -1,-1.05902 z m 236.75,-1.64671 c 1.2375,-0.23836 3.2625,-0.23836 4.5,0 1.2375,0.23835 0.225,0.43337 -2.25,0.43337 -2.475,0 -3.4875,-0.19502 -2.25,-0.43337 z m -68.5,-6.9836 c 0.9625,-0.25152 2.5375,-0.25152 3.5,0 0.9625,0.25153 0.175,0.45733 -1.75,0.45733 -1.925,0 -2.7125,-0.2058 -1.75,-0.45733 z m -57.4375,-0.99378 c 0.72187,-0.28888 1.58438,-0.25335 1.91667,0.0789 0.33229,0.33229 -0.25834,0.56864 -1.3125,0.52522 -1.16495,-0.048 -1.4019,-0.28494 -0.60417,-0.60417 z m -98,-2 c 0.72187,-0.28888 1.58437,-0.25335 1.91667,0.0789 0.33229,0.33229 -0.25834,0.56864 -1.3125,0.52522 -1.16495,-0.048 -1.4019,-0.28494 -0.60417,-0.60417 z m 138,0 c 0.72187,-0.28888 1.58438,-0.25335 1.91667,0.0789 0.33229,0.33229 -0.25834,0.56864 -1.3125,0.52522 -1.16495,-0.048 -1.4019,-0.28494 -0.60417,-0.60417 z m -95,-13 c 0.72187,-0.28888 1.58437,-0.25335 1.91667,0.0789 0.33229,0.33229 -0.25834,0.56864 -1.3125,0.52522 -1.16495,-0.048 -1.4019,-0.28494 -0.60417,-0.60417 z" fill="#6f6f6f"/><path style="" d="m 553.16964,809.53622 c 0.72187,-0.28887 1.58438,-0.25335 1.91667,0.0789 0.33229,0.33229 -0.25834,0.56864 -1.3125,0.52522 -1.16495,-0.048 -1.4019,-0.28494 -0.60417,-0.60416 z m 83,-51 c 0.72187,-0.28887 1.58438,-0.25335 1.91667,0.0789 0.33229,0.33229 -0.25834,0.56864 -1.3125,0.52522 -1.16495,-0.048 -1.4019,-0.28494 -0.60417,-0.60416 z m -23.0625,-3.97917 c 0.6875,-0.27741 1.8125,-0.27741 2.5,0 0.6875,0.27741 0.125,0.50439 -1.25,0.50439 -1.375,0 -1.9375,-0.22698 -1.25,-0.50439 z m 7.75,-6.33772 c 0.99549,-1.1 2.03498,-2 2.30998,-2 0.275,0 -0.31449,0.9 -1.30998,2 -0.99549,1.1 -2.03498,2 -2.30998,2 -0.275,0 0.31449,-0.9 1.30998,-2 z m -131.6875,-5.68311 c 0.72187,-0.28887 1.58438,-0.25335 1.91667,0.0789 0.33229,0.33229 -0.25834,0.56864 -1.3125,0.52522 -1.16495,-0.048 -1.4019,-0.28494 -0.60417,-0.60416 z m 123.28114,-45.99256 c 0.35121,-2.02174 -0.2065,-2.69709 -1.09364,-1.32433 -0.58246,0.90129 -0.97549,1.02463 -0.98469,0.30902 -0.0245,-1.9021 1.65427,-2.41207 2.91994,-0.88704 0.81598,0.9832 0.84233,1.59745 0.0885,2.06332 -0.59033,0.36485 -1.00889,0.29241 -0.93014,-0.16097 z M 532.43609,679.636 c 0.048,-1.16495 0.28494,-1.4019 0.60416,-0.60417 0.28887,0.72187 0.25335,1.58438 -0.0789,1.91667 -0.33229,0.33229 -0.56864,-0.25834 -0.52522,-1.3125 z m 75.93019,-5.90566 c -0.67967,-0.81894 -1.70429,-1.19941 -2.27696,-0.84549 -0.6245,0.38597 -0.73953,0.15539 -0.28741,-0.57615 0.56645,-0.91654 1.22617,-0.79216 2.65451,0.50047 1.04539,0.94608 1.90072,1.87539 1.90072,2.06515 0,0.74339 -0.81146,0.27711 -1.99086,-1.14398 z M 372.43609,672.636 c 0.048,-1.16495 0.28494,-1.4019 0.60416,-0.60417 0.28887,0.72187 0.25335,1.58438 -0.0789,1.91667 -0.33229,0.33229 -0.56864,-0.25834 -0.52522,-1.3125 z m 217.15305,-26.41667 c 0,-1.925 0.2058,-2.7125 0.45733,-1.75 0.25152,0.9625 0.25152,2.5375 0,3.5 -0.25153,0.9625 -0.45733,0.175 -0.45733,-1.75 z m -193.232,-13.05902 c 0,-0.58246 0.45,-0.7809 1,-0.44098 0.55,0.33992 1,0.81648 1,1.05902 0,0.24254 -0.45,0.44098 -1,0.44098 -0.55,0 -1,-0.47656 -1,-1.05902 z m 261,-94.94098 c 0,-0.55 0.47656,-1 1.05902,-1 0.58246,0 0.7809,0.45 0.44098,1 -0.33992,0.55 -0.81648,1 -1.05902,1 -0.24254,0 -0.44098,-0.45 -0.44098,-1 z m -552.1875,-7.68311 c 0.72187,-0.28887 1.58438,-0.25335 1.91667,0.0789 0.33229,0.33229 -0.25834,0.56864 -1.3125,0.52522 -1.16495,-0.048 -1.4019,-0.28494 -0.60417,-0.60416 z m -20.0625,-31.97917 c 0.6875,-0.27741 1.8125,-0.27741 2.5,0 0.6875,0.27741 0.125,0.50439 -1.25,0.50439 -1.375,0 -1.9375,-0.22698 -1.25,-0.50439 z m 101.98333,-20.46181 c 0.67834,-0.68342 1.48524,-0.99067 1.79313,-0.68278 0.30789,0.30789 -0.24711,0.86705 -1.23333,1.24258 -1.4252,0.54268 -1.54006,0.42782 -0.5598,-0.5598 z M 617.43609,462.636 c 0.048,-1.16495 0.28494,-1.4019 0.60416,-0.60417 0.28887,0.72187 0.25335,1.58437 -0.0789,1.91667 -0.33229,0.33229 -0.56864,-0.25834 -0.52522,-1.3125 z m 5.32604,-25.66667 -1.90499,-2.25 2.25,1.90499 c 2.11444,1.79022 2.70524,2.59501 1.90499,2.59501 -0.18976,0 -1.20226,-1.0125 -2.25,-2.25 z m -36.67166,-17.87409 c 0.67834,-0.68342 1.48524,-0.99067 1.79313,-0.68278 0.30789,0.30789 -0.24711,0.86705 -1.23333,1.24258 -1.4252,0.54268 -1.54006,0.42782 -0.5598,-0.5598 z M 669.43609,392.636 c 0.048,-1.16495 0.28494,-1.4019 0.60416,-0.60417 0.28887,0.72187 0.25335,1.58437 -0.0789,1.91667 -0.33229,0.33229 -0.56864,-0.25834 -0.52522,-1.3125 z m -47.26645,-1.09978 c 0.72187,-0.28887 1.58438,-0.25335 1.91667,0.0789 0.33229,0.3323 -0.25834,0.56864 -1.3125,0.52522 -1.16495,-0.048 -1.4019,-0.28494 -0.60417,-0.60416 z m 5,-1 c 0.72187,-0.28887 1.58438,-0.25335 1.91667,0.0789 0.33229,0.3323 -0.25834,0.56864 -1.3125,0.52522 -1.16495,-0.048 -1.4019,-0.28494 -0.60417,-0.60416 z m 82.9375,-35.97917 c 0.6875,-0.27741 1.8125,-0.27741 2.5,0 0.6875,0.27741 0.125,0.50439 -1.25,0.50439 -1.375,0 -1.9375,-0.22698 -1.25,-0.50439 z M 624.96015,330.386 c -0.28327,-0.45834 0.12038,-0.83334 0.89699,-0.83334 0.77661,0 1.18026,0.375 0.89699,0.83334 -0.28326,0.45833 -0.68691,0.83333 -0.89699,0.83333 -0.21008,0 -0.61373,-0.375 -0.89699,-0.83333 z M 245.35714,318.66031 c 0,-0.85746 0.45734,-1.27636 1.01631,-0.9309 0.55897,0.34547 0.75742,1.04702 0.44098,1.55902 -0.85723,1.38704 -1.45729,1.12841 -1.45729,-0.62812 z m 140.7277,-7.16271 c 1.77523,-0.22091 4.92523,-0.22454 7,-0.008 2.07476,0.21647 0.6223,0.39722 -3.2277,0.40166 -3.85,0.004 -5.54754,-0.17268 -3.7723,-0.3936 z" fill="#4f4f4f"/><path style="" d="m 591.35714,811.21933 c 0,-0.55 0.47656,-1 1.05902,-1 0.58246,0 0.7809,0.45 0.44098,1 -0.33992,0.55 -0.81648,1 -1.05902,1 -0.24254,0 -0.44098,-0.45 -0.44098,-1 z m 14.5,0 c -0.33992,-0.55 -0.14148,-1 0.44098,-1 0.58246,0 1.05902,0.45 1.05902,1 0,0.55 -0.19844,1 -0.44098,1 -0.24254,0 -0.7191,-0.45 -1.05902,-1 z m -92.5,-12.05902 c 0,-0.58246 0.45,-0.7809 1,-0.44098 0.55,0.33992 1,0.81648 1,1.05902 0,0.24254 -0.45,0.44098 -1,0.44098 -0.55,0 -1,-0.47656 -1,-1.05902 z m -11,-12.44098 c -2.42903,-2.475 -4.19142,-4.5 -3.91642,-4.5 0.275,0 2.48739,2.025 4.91642,4.5 2.42903,2.475 4.19142,4.5 3.91642,4.5 -0.275,0 -2.48739,-2.025 -4.91642,-4.5 z m 90.19495,-4 c 0.0204,-1.65 0.2445,-2.20394 0.49804,-1.23097 0.25354,0.97297 0.23687,2.32297 -0.0371,3 -0.27393,0.67703 -0.48137,-0.11903 -0.46099,-1.76903 z m 52.61755,-8.18311 c 0.72187,-0.28887 1.58438,-0.25335 1.91667,0.0789 0.33229,0.33229 -0.25834,0.56864 -1.3125,0.52522 -1.16495,-0.048 -1.4019,-0.28494 -0.60417,-0.60416 z m -104.65461,-7.31689 c 0,-1.375 0.22698,-1.9375 0.50439,-1.25 0.27741,0.6875 0.27741,1.8125 0,2.5 -0.27741,0.6875 -0.50439,0.125 -0.50439,-1.25 z m 73.05268,-5.60086 c -0.70918,-0.76953 -0.84824,-1.39914 -0.30901,-1.39914 1.03844,0 2.54172,1.90221 1.94858,2.46567 -0.19258,0.18294 -0.93038,-0.297 -1.63957,-1.06653 z m 3.60193,-7.08225 c 0.72187,-0.28887 1.58438,-0.25335 1.91667,0.0789 0.33229,0.33229 -0.25834,0.56864 -1.3125,0.52522 -1.16495,-0.048 -1.4019,-0.28494 -0.60417,-0.60416 z M 534.43609,751.636 c 0.048,-1.16495 0.28494,-1.4019 0.60416,-0.60417 0.28887,0.72187 0.25335,1.58438 -0.0789,1.91667 -0.33229,0.33229 -0.56864,-0.25834 -0.52522,-1.3125 z m 51.92105,0.19996 c 0,-0.21085 0.90062,-0.61888 2.00138,-0.90674 1.10076,-0.28785 1.7492,-0.11534 1.44098,0.38337 -0.53825,0.87091 -3.44236,1.31244 -3.44236,0.52337 z m -1.92105,-8.19996 c 0.048,-1.16495 0.28494,-1.4019 0.60416,-0.60417 0.28887,0.72187 0.25335,1.58438 -0.0789,1.91667 -0.33229,0.33229 -0.56864,-0.25834 -0.52522,-1.3125 z m -80.884,-9.91667 c 0.0204,-1.65 0.2445,-2.20394 0.49804,-1.23097 0.25354,0.97297 0.23687,2.32297 -0.0371,3 -0.27393,0.67703 -0.48137,-0.11903 -0.46099,-1.76903 z m 112.96294,-20.5 c 0,-1.375 0.22698,-1.9375 0.50439,-1.25 0.27741,0.6875 0.27741,1.8125 0,2.5 -0.27741,0.6875 -0.50439,0.125 -0.50439,-1.25 z m -106.96294,-14.5 c 0.0204,-1.65 0.2445,-2.20394 0.49804,-1.23097 0.25354,0.97297 0.23687,2.32297 -0.0371,3 -0.27393,0.67703 -0.48137,-0.11903 -0.46099,-1.76903 z m -31.116,-4.08333 c 0.048,-1.16495 0.28494,-1.4019 0.60416,-0.60417 0.28887,0.72187 0.25335,1.58438 -0.0789,1.91667 -0.33229,0.33229 -0.56864,-0.25834 -0.52522,-1.3125 z m 38.25438,0.12732 c 0,-0.80081 0.38234,-1.21971 0.84965,-0.9309 0.4673,0.28881 0.59075,0.94401 0.27431,1.45601 -0.80862,1.30838 -1.12396,1.16106 -1.12396,-0.52511 z m -14.79062,-4.47489 c -0.31644,-0.512 -0.19299,-1.1672 0.27431,-1.45601 0.46731,-0.28881 0.84965,0.13009 0.84965,0.9309 0,1.68617 -0.31534,1.83349 -1.12396,0.52511 z m 112.02158,-2.77597 c -0.54268,-1.4252 -0.42782,-1.54006 0.5598,-0.5598 0.68342,0.67834 0.99067,1.48524 0.68278,1.79313 -0.30789,0.30789 -0.86705,-0.24711 -1.24258,-1.23333 z M 510.22958,641.46933 c -1.24387,-1.58606 -1.2085,-1.62143 0.37756,-0.37756 0.9625,0.75485 1.75,1.54235 1.75,1.75 0,0.82304 -0.82119,0.29331 -2.12756,-1.37244 z m -115.87244,-4.62756 c 0,-0.20765 0.7875,-0.99515 1.75,-1.75 1.58606,-1.24387 1.62143,-1.2085 0.37756,0.37756 -1.30637,1.66575 -2.12756,2.19548 -2.12756,1.37244 z m 153,-20.12244 c 0,-0.825 0.43588,-1.5 0.96862,-1.5 0.53273,0 0.70959,0.675 0.39301,1.5 -0.31659,0.825 -0.75246,1.5 -0.96862,1.5 -0.21615,0 -0.39301,-0.675 -0.39301,-1.5 z m -120.12756,-1.25 c -1.24387,-1.58606 -1.2085,-1.62143 0.37756,-0.37756 1.66575,1.30637 2.19548,2.12756 1.37244,2.12756 -0.20765,0 -0.99515,-0.7875 -1.75,-1.75 z M 270.10714,598.55705 c 0.6875,-0.27741 1.8125,-0.27741 2.5,0 0.6875,0.27741 0.125,0.50439 -1.25,0.50439 -1.375,0 -1.9375,-0.22698 -1.25,-0.50439 z m 306.25,-7.2787 c 0,-0.51754 0.44485,-1.21592 0.98855,-1.55194 0.56686,-0.35034 0.7345,0.0511 0.39301,0.94098 -0.66479,1.73242 -1.38156,2.04939 -1.38156,0.61096 z m 52.27236,-36.05902 c 0,-2.475 0.19502,-3.4875 0.43337,-2.25 0.23836,1.2375 0.23836,3.2625 0,4.5 -0.23835,1.2375 -0.43337,0.225 -0.43337,-2.25 z m -12.39992,-4.75 c -1.24387,-1.58606 -1.2085,-1.62143 0.37756,-0.37756 1.66575,1.30637 2.19548,2.12756 1.37244,2.12756 -0.20765,0 -0.99515,-0.7875 -1.75,-1.75 z m 18.20651,0.16667 c 0.048,-1.16495 0.28494,-1.4019 0.60416,-0.60417 0.28887,0.72187 0.25335,1.58438 -0.0789,1.91667 -0.33229,0.33229 -0.56864,-0.25834 -0.52522,-1.3125 z m -11.57895,-11.41667 c 0.99549,-1.1 2.03498,-2 2.30998,-2 0.275,0 -0.31449,0.9 -1.30998,2 -0.99549,1.1 -2.03498,2 -2.30998,2 -0.275,0 0.31449,-0.9 1.30998,-2 z m 20.5,-14 c -0.90129,-0.58246 -1.02463,-0.97549 -0.30902,-0.98469 0.65504,-0.008 1.4691,0.43469 1.80902,0.98469 0.7673,1.24153 0.42112,1.24153 -1.5,0 z m -65.84211,-11 c 0,-1.375 0.22698,-1.9375 0.50439,-1.25 0.27741,0.6875 0.27741,1.8125 0,2.5 -0.27741,0.6875 -0.50439,0.125 -0.50439,-1.25 z m -17.65789,-2 c 0.99549,-1.1 2.03498,-2 2.30998,-2 0.275,0 -0.31449,0.9 -1.30998,2 -0.99549,1.1 -2.03498,2 -2.30998,2 -0.275,0 0.31449,-0.9 1.30998,-2 z m -451.6875,-18.68311 c 0.72187,-0.28887 1.58438,-0.25335 1.91667,0.0789 0.33229,0.33229 -0.25834,0.56864 -1.3125,0.52522 -1.16495,-0.048 -1.4019,-0.28494 -0.60417,-0.60416 z m 532.75179,-4.61002 c 0.37553,-0.98622 0.93469,-1.54122 1.24258,-1.23333 0.30789,0.30789 6.4e-4,1.11479 -0.68278,1.79313 -0.98762,0.98026 -1.10248,0.8654 -0.5598,-0.5598 z m -31.56429,-1.08443 c 0,-0.20765 0.7875,-0.99515 1.75,-1.75 1.58606,-1.24387 1.62143,-1.2085 0.37756,0.37756 -1.30637,1.66575 -2.12756,2.19548 -2.12756,1.37244 z m 50,-6 c 0,-0.20765 0.7875,-0.99515 1.75,-1.75 1.58606,-1.24387 1.62143,-1.2085 0.37756,0.37756 -1.30637,1.66575 -2.12756,2.19548 -2.12756,1.37244 z m -338,-15.62244 c 0,-0.55 0.47656,-1 1.05902,-1 0.58246,0 0.7809,0.45 0.44098,1 -0.33992,0.55 -0.81648,1 -1.05902,1 -0.24254,0 -0.44098,-0.45 -0.44098,-1 z M 617.43609,459.636 c 0.048,-1.16495 0.28494,-1.4019 0.60416,-0.60417 0.28887,0.72187 0.25335,1.58437 -0.0789,1.91667 -0.33229,0.33229 -0.56864,-0.25834 -0.52522,-1.3125 z m 8.79349,-19.16667 c -1.24387,-1.58606 -1.2085,-1.62143 0.37756,-0.37756 0.9625,0.75485 1.75,1.54235 1.75,1.75 0,0.82304 -0.82119,0.29331 -2.12756,-1.37244 z m 60.12756,-13.19098 c 0,-0.51754 0.44485,-1.21592 0.98855,-1.55194 0.56686,-0.35034 0.7345,0.0511 0.39301,0.94098 -0.66479,1.73242 -1.38156,2.04939 -1.38156,0.61096 z m -237.26879,-6.13918 c 0.35361,-1.3522 0.8069,-1.8055 1.05655,-1.05655 0.24048,0.72144 -0.0382,1.78716 -0.61931,2.36826 -0.74207,0.74207 -0.87221,0.35164 -0.43724,-1.31171 z m -4.53626,-3.41984 c 0.0204,-1.65 0.2445,-2.20394 0.49804,-1.23097 0.25354,0.97297 0.23687,2.32297 -0.0371,3 -0.27393,0.67703 -0.48137,-0.11903 -0.46099,-1.76903 z m 174.61755,-26.18311 c 0.72187,-0.28887 1.58438,-0.25335 1.91667,0.0789 0.33229,0.3323 -0.25834,0.56864 -1.3125,0.52522 -1.16495,-0.048 -1.4019,-0.28494 -0.60417,-0.60416 z M 248.22958,339.46933 c -1.24387,-1.58606 -1.2085,-1.62143 0.37756,-0.37756 1.66575,1.30637 2.19548,2.12756 1.37244,2.12756 -0.20765,0 -0.99515,-0.7875 -1.75,-1.75 z m 388.94006,-8.93311 c 0.72187,-0.28888 1.58438,-0.25335 1.91667,0.0789 0.33229,0.33229 -0.25834,0.56864 -1.3125,0.52522 -1.16495,-0.048 -1.4019,-0.28494 -0.60417,-0.60417 z m -173.47917,-8.7729 c 0,-0.80081 0.38234,-1.21971 0.84965,-0.9309 0.4673,0.28881 0.59075,0.94401 0.27431,1.45601 -0.80862,1.30838 -1.12396,1.16106 -1.12396,-0.52511 z m -225.72024,-4.72697 c 0.28881,-0.4673 0.94401,-0.59075 1.45601,-0.27431 1.30838,0.80862 1.16106,1.12396 -0.52511,1.12396 -0.80081,0 -1.21971,-0.38234 -0.9309,-0.84965 z m 249.13691,0.5207 c 0.6875,-0.27741 1.8125,-0.27741 2.5,0 0.6875,0.27741 0.125,0.50439 -1.25,0.50439 -1.375,0 -1.9375,-0.22698 -1.25,-0.50439 z m -164,-25 c 0.6875,-0.27741 1.8125,-0.27741 2.5,0 0.6875,0.27741 0.125,0.50439 -1.25,0.50439 -1.375,0 -1.9375,-0.22698 -1.25,-0.50439 z" fill="#2f2f2f"/><path style="" d="m 612.55491,819.68462 c 1.57309,-3.45256 11.2483,-9.07317 17.05223,-9.90613 2.6125,-0.37494 4.75,-0.43479 4.75,-0.133 0,0.30178 -3.0375,2.14575 -6.75,4.09771 -3.7125,1.95196 -8.27905,4.65761 -10.14788,6.01257 -4.59053,3.32826 -6.44099,3.30141 -4.90435,-0.0711 z m -39.93978,-7.12491 c -0.91942,-0.37141 -0.96624,-1.017 -0.18026,-2.48562 0.84722,-1.58305 1.35054,-1.74421 2.49111,-0.79763 1.10478,0.91689 2.11362,0.90283 4.4427,-0.0619 2.41647,-1.00093 3.91572,-0.99553 7.56886,0.0273 3.1141,0.87189 4.13849,1.53989 3.23755,2.11116 -2.13127,1.35142 -5.01823,0.99322 -7.12211,-0.88367 -1.89303,-1.68879 -1.93715,-1.67131 -1.26135,0.5 0.65395,2.10111 0.41459,2.24478 -3.6171,2.17105 -2.37457,-0.0434 -4.87629,-0.30472 -5.5594,-0.58067 z m -13.25799,-1.90625 c -1.925,-0.70509 -5.09296,-1.31621 -7.0399,-1.35805 -1.94695,-0.0418 -6.22195,-0.83334 -9.5,-1.75889 -3.27806,-0.92554 -7.63139,-1.76252 -9.67408,-1.85995 -4.61422,-0.22009 -12.78602,-2.45022 -12.78602,-3.48938 0,-0.42471 -1.32313,-1.23346 -2.94029,-1.7972 -2.72571,-0.95019 -2.85342,-1.21217 -1.75,-3.5899 1.06966,-2.30497 1.64634,-2.52328 5.69029,-2.15413 5.40389,0.49329 9.64441,2.0066 10.1874,3.63558 0.21844,0.6553 2.64559,1.4075 5.39368,1.67156 3.81007,0.3661 5.31564,0.0956 6.3404,-1.13916 1.03362,-1.24543 1.66292,-1.35449 2.7258,-0.47238 0.76006,0.6308 4.515,1.37107 8.34431,1.64506 3.82932,0.27398 6.72119,0.88843 6.42638,1.36543 -0.2948,0.477 -1.63445,0.86728 -2.97699,0.86728 -1.50309,0 -2.44098,0.57634 -2.44098,1.5 0,1.07646 1.09922,1.5 3.89301,1.5 2.53796,0 4.09336,0.52211 4.46862,1.5 0.31658,0.825 1.68817,1.5 3.04797,1.5 1.3598,0 2.75245,0.45318 3.09477,1.00706 0.93809,1.51788 -2.32403,2.38749 -3.93638,1.04936 -1.0881,-0.90304 -1.59462,-0.8473 -2.23727,0.24618 -0.69659,1.18527 -1.39585,1.20651 -4.33072,0.13153 z m 34.47814,0.007 c 1.43098,-1.08167 3.22889,-1.31715 6.5,-0.85135 7.57654,1.07891 6.99998,2.41268 -1.02814,2.37841 -6.83036,-0.0292 -7.28547,-0.15617 -5.47186,-1.52706 z m 14.41392,-0.81108 c 0.9983,-1.20288 3.06786,-1.63006 7.89705,-1.63006 7.04039,0 7.88149,1.09039 1.20778,1.56575 -2.23293,0.15904 -5.49938,0.60534 -7.25876,0.99177 -2.878,0.63211 -3.06319,0.53907 -1.84607,-0.92746 z M 500.7934,783.93651 c -4.77942,-5.06945 -9.26238,-10.56718 -9.96212,-12.21718 -0.69974,-1.65 -2.05692,-4.90341 -3.01596,-7.2298 -0.95904,-2.32639 -3.01654,-5.65545 -4.57221,-7.39792 -1.55568,-1.74248 -3.33816,-4.78907 -3.96108,-6.77021 -0.62291,-1.98114 -2.40981,-4.95207 -3.97087,-6.60207 -9.71494,-10.2684 -16.95402,-18.80823 -16.95402,-20.00038 0,-2.1521 1.52203,-2.57432 3.60268,-0.99939 1.04353,0.78989 3.35982,1.45047 5.14732,1.46797 3.11488,0.0305 7.25,2.88195 7.25,4.99941 0,0.53218 2.39595,2.77656 5.32434,4.98752 2.92839,2.21095 5.92943,5.15053 6.66898,6.53239 0.84569,1.58018 2.20961,2.51248 3.67566,2.51248 1.28206,0 3.23102,0.9 4.33102,2 1.1,1.1 2.35625,2 2.79166,2 0.43542,0 2.48798,1.60002 4.56126,3.55559 3.36119,3.17038 3.73587,4.01002 3.45834,7.75 -0.26703,3.59838 -0.0177,4.23638 1.75426,4.48979 1.31625,0.18822 2.51858,1.54829 3.31448,3.74932 1.43153,3.95881 4.70219,6.27311 6.42736,4.54794 0.79019,-0.79019 0.62206,-1.09264 -0.60736,-1.09264 -2.27704,0 -2.15875,-1.68412 0.20722,-2.95035 1.59739,-0.85489 2.08113,-0.57632 2.97778,1.71482 0.58881,1.50454 1.86415,3.82891 2.83409,5.16527 1.73384,2.38882 1.72557,2.4198 -0.49087,1.84019 -2.82715,-0.73931 -4.22822,1.59325 -4.22822,7.03933 0,2.16741 -0.26698,5.27565 -0.5933,6.90722 -0.50863,2.54319 -1.07039,2.98441 -3.93693,3.09218 -2.98254,0.11212 -4.2821,-0.86971 -12.03351,-9.09148 z m 91.98316,2.29228 c 0.64313,-5.6845 0.53684,-6.20814 -1.3609,-6.70441 -2.19325,-0.57354 -2.91981,-5.03704 -1.11587,-6.85505 0.88467,-0.89156 2.18611,-5.32514 3.94814,-13.45 1.02672,-4.73428 2.88861,-8 4.56106,-8 0.75982,0 1.55059,-0.50732 1.75727,-1.12737 0.27884,-0.8365 1.7321,-0.8365 5.63256,0 8.58189,1.84048 12.18679,1.47427 15.3536,-1.55972 3.14763,-3.01562 3.69227,-1.62399 1.08911,2.7828 l -1.71561,2.90429 -11.6774,0 c -9.72577,0 -11.77885,0.26436 -12.28439,1.58179 -1.031,2.68674 -0.64132,4.81564 1.35778,7.41776 1.85588,2.4157 2.01449,2.44466 4.72777,0.86327 3.62757,-2.11427 11.30746,-3.43918 11.30746,-1.95072 0,0.59835 -0.5625,1.10619 -1.25,1.12854 -0.6875,0.0224 -2.79931,1.36509 -4.6929,2.98387 l -3.44291,2.94323 1.69291,3.55006 c 0.93109,1.95253 1.6929,4.23127 1.6929,5.06388 0,0.8326 1.12971,2.5608 2.51047,3.84045 2.19323,2.03261 2.41065,2.8071 1.72051,6.12874 -0.43448,2.09117 -1.33895,3.98512 -2.00994,4.20878 -1.78624,0.59542 -2.72442,-2.72396 -1.37886,-4.87855 1.77242,-2.83809 1.397,-3.26783 -1.307,-1.49611 -3.23272,2.11816 -3.53518,2.05292 -3.53518,-0.76255 0,-1.30765 -0.675,-2.93775 -1.5,-3.62244 -0.825,-0.68469 -1.5,-2.53979 -1.5,-4.12244 0,-1.85133 -0.51879,-2.87756 -1.45469,-2.87756 -1.60937,0 -2.40726,3.42442 -2.79599,12 -0.22452,4.95283 -0.487,5.5336 -2.63842,5.83778 -2.35922,0.33355 -2.38037,0.26067 -1.69148,-5.82832 z m -27.60173,-5.14829 c -0.46291,-3.07509 -6.20828,-4.7832 -10.81769,-3.21612 -2.89857,0.98544 -3.55556,0.94633 -3.82332,-0.22757 -0.18599,-0.81537 -1.53177,-1.41748 -3.16822,-1.41748 -5.22219,0 -6.00846,-0.81142 -6.00846,-6.20061 0,-4.09165 -0.34766,-5.07754 -1.9371,-5.49319 -2.48402,-0.64959 -4.0629,-5.22131 -4.0629,-11.76429 0,-5.86884 1.96531,-9.61367 4.14179,-7.89205 0.74701,0.5909 2.54879,1.35821 4.00395,1.70514 2.74871,0.65532 3.85426,-0.57128 3.85426,-4.27627 0,-1.68633 3.72514,-4.07873 6.35089,-4.07873 1.61271,0 7.64911,-6.19796 7.64911,-7.85384 0,-0.69224 2.0624,-2.17092 4.58311,-3.28595 2.52071,-1.11503 4.35486,-2.25557 4.07589,-2.53454 -0.27897,-0.27897 1.00045,-2.48237 2.84316,-4.89644 1.8427,-2.41407 3.63887,-5.29822 3.99149,-6.40923 0.92314,-2.90854 1.76457,-2.50196 3.85449,1.86249 1.14299,2.38694 3.3369,4.69627 5.75,6.05251 4.61509,2.59383 4.87194,3.60471 1.15307,4.53809 -2.43322,0.6107 -2.55933,0.82844 -1.09847,1.89664 1.4806,1.08265 1.37336,1.36571 -1.04281,2.7524 -2.21184,1.26942 -2.64504,2.15614 -2.424,4.96176 0.52393,6.65024 1.54604,9.7854 3.91605,12.01191 3.06665,2.88098 3.01574,3.53235 -0.34196,4.37508 -3.42771,0.86029 -4.2254,2.09911 -4.24471,6.59203 -0.0112,2.6162 -0.78813,4.30331 -2.9238,6.34942 -2.45751,2.35444 -3.01595,3.85651 -3.60149,9.68709 -0.38115,3.79532 -1.09733,6.90058 -1.59151,6.90058 -0.49418,0 -0.89851,-0.45915 -0.89851,-1.02032 0,-0.56118 -1.76954,-0.11758 -3.93231,0.98579 l -3.93231,2.00611 -0.31769,-2.11041 z m 73.91512,-2.77492 c -0.59302,-2.2677 1.54238,-3.05233 8.3622,-3.0726 3.19445,-0.009 5.09946,0.54375 6.25,1.81509 2.15267,2.37867 2.1098,3.57555 -0.095,2.65297 -4.28678,-1.79376 -9.24055,-2.19803 -10.36289,-0.84569 -1.6137,1.9444 -3.56976,1.68554 -4.1543,-0.54977 z m -3.06614,-16.75292 c -1.15974,-1.15973 -0.72327,-2.33333 0.86777,-2.33333 1.25311,0 1.4185,-0.87404 0.90208,-4.76704 -0.43486,-3.27812 -0.15876,-5.85489 0.88398,-8.25 l 1.51635,-3.48296 0.0816,2.81739 c 0.068,2.34806 0.41473,2.71164 2.08157,2.18261 2.24924,-0.71388 2.77617,1.32383 0.84238,3.25762 -0.87682,0.87682 -0.81618,1.57715 0.25,2.88723 1.25786,1.5456 1.20335,1.65289 -0.51243,1.00851 -2.45383,-0.92157 -3.78113,1.10222 -2.40693,3.66993 0.76597,1.43124 0.68321,2.15301 -0.31977,2.78857 -1.63533,1.03626 -3.28455,1.1235 -4.18658,0.22147 z M 504.35714,748.58072 c -1.375,-1.38476 -4.35923,-3.81752 -6.63162,-5.40616 -5.4845,-3.83422 -11.31642,-15.21446 -11.35383,-22.15554 -0.008,-1.50464 -0.78943,-3.15164 -1.76455,-3.71959 -0.9625,-0.56061 -1.38186,-1.03297 -0.93191,-1.04969 0.44996,-0.0167 -0.21023,-1.49291 -1.46708,-3.28041 -3.23837,-4.60562 -4.48814,-5.75 -6.27958,-5.75 -0.93843,0 -1.60479,-0.90634 -1.65424,-2.25 -0.40364,-10.96733 -0.30262,-15.74771 0.33281,-15.74876 0.4125,-6.8e-4 0.75,-0.90124 0.75,-2.00124 0,-1.1 -0.59626,-2 -1.32503,-2 -0.86174,0 -1.29879,-1.22272 -1.25,-3.49706 0.0413,-1.92338 0.44285,-3.49838 0.89242,-3.5 1.03506,-0.004 -0.1584,-4.02042 -1.78361,-6.00294 -0.67632,-0.825 -1.82169,-3.75 -2.54527,-6.5 -1.44531,-5.49297 -5.57554,-15.5 -6.39736,-15.5 -0.2854,0 -2.24895,1.85469 -4.36344,4.12154 -3.43506,3.68257 -4.18445,4.04687 -7.03612,3.42054 -3.16768,-0.69574 -3.19162,-0.74721 -3.19533,-6.87154 -0.004,-6.3668 -2.92354,-13.45155 -5.01166,-12.16102 -0.5666,0.35018 -0.9846,-0.72989 -0.9846,-2.54412 0,-2.28254 -0.53711,-3.2931 -1.94611,-3.66156 -2.52844,-0.6612 -8.75666,-8.6741 -9.55012,-12.28666 -0.75331,-3.42982 -4.50377,-7.33971 -4.50377,-4.69522 0,2.92343 -4.63669,4.9296 -12.06679,5.22096 -7.83703,0.30733 -9.93321,1.44797 -9.93321,5.40521 0,3.10077 -3.97361,7.38296 -6.09539,6.56876 -0.8862,-0.34007 -1.89115,0.55568 -2.71726,2.42199 -0.72103,1.62891 -3.98314,5.73528 -7.24915,9.12527 -3.26601,3.38999 -5.9382,6.552 -5.9382,7.02668 0,0.47469 -1.2375,1.65013 -2.75,2.61211 -1.5125,0.96198 -3.10986,2.32235 -3.54969,3.02305 -0.43983,0.70071 -1.56483,1.27404 -2.5,1.27407 -1.52726,6e-5 -1.70978,1.66342 -1.79333,16.34302 -0.0873,15.34063 -0.22531,16.47525 -2.25,18.49994 -2.41125,2.41125 -2.7945,4.73307 -0.90698,5.4947 0.6875,0.27741 0.0241,0.53991 -1.47432,0.58333 -1.94658,0.0564 -3.14931,0.9008 -4.21301,2.95777 -0.81879,1.58335 -2.15909,3.13607 -2.97845,3.45049 -2.0706,0.79456 -6.27735,-4.47595 -7.65442,-9.59001 -0.61754,-2.29337 -3.10438,-8.06374 -5.5263,-12.82304 -2.42193,-4.75929 -4.4035,-9.00245 -4.4035,-9.42923 0,-0.42679 -1.97471,-5.09846 -4.38824,-10.3815 -4.75135,-10.40035 -9.61176,-26.76638 -9.61176,-32.36484 0,-1.91908 -0.60763,-5.23331 -1.35028,-7.36496 -0.74266,-2.13165 -1.15516,-4.43823 -0.91667,-5.12573 0.23849,-0.6875 -0.0539,-1.25 -0.64972,-1.25 -0.59583,0 -1.08333,1.31734 -1.08333,2.92742 0,2.94516 -3.80886,7.07258 -6.52671,7.07258 -1.49114,0 -11.47329,-8.78096 -11.47329,-10.09267 0,-0.49903 1.0699,-0.90733 2.37756,-0.90733 1.30765,0 2.9135,-0.64578 3.56855,-1.43507 0.99173,-1.19496 0.6849,-1.42067 -1.83393,-1.34906 -1.66371,0.0473 -4.05706,-0.6712 -5.31855,-1.59667 -1.2615,-0.92548 -3.68504,-2.57091 -5.38565,-3.65651 -1.70061,-1.0856 -3.60347,-3.09632 -4.22856,-4.46826 -0.6251,-1.37193 -1.59619,-2.49443 -2.15798,-2.49443 -0.56179,0 -1.02144,-0.675 -1.02144,-1.5 0,-0.825 -0.5625,-1.54991 -1.25,-1.61092 -2.30755,-0.20476 -15.19604,0.24113 -20.75,0.71787 -5.32711,0.45726 -17.49153,-0.88415 -25.32564,-2.79275 -3.09374,-0.75371 -4.11965,-1.63819 -5.36239,-4.62311 -1.92482,-4.62318 -3.4464,-5.64326 -5.10502,-3.42243 -0.99426,1.33128 -2.79348,1.73134 -7.78647,1.73134 -3.69016,0 -6.80146,-0.48225 -7.20695,-1.11708 -0.39244,-0.61439 -3.26957,-2.74559 -6.39362,-4.736 -4.06828,-2.59201 -6.71559,-5.29658 -9.32926,-9.53106 -5.02009,-8.13319 -7.5923,-8.52836 -15.46169,-2.37541 -0.25907,0.20256 0.0279,0.68133 0.63761,1.06392 0.60976,0.3826 1.8149,2.39184 2.6781,4.46499 0.8632,2.07314 3.61377,5.62985 6.11239,7.90379 2.49862,2.27395 4.54294,4.69209 4.54294,5.37366 0,0.68157 0.675,1.49823 1.5,1.81482 0.825,0.31658 1.49311,1.15222 1.48469,1.85699 -0.0109,0.91005 -0.28491,0.85509 -0.94563,-0.18966 -1.39786,-2.21034 -2.37141,-0.51847 -1.0849,1.88539 1.49618,2.79564 2.69279,2.62847 3.47431,-0.48539 1.10369,-4.39744 3.05159,-2.1478 3.37124,3.89347 0.27436,5.18539 0.52361,5.72061 2.94735,6.32893 1.45621,0.36549 2.79094,0.23464 2.96608,-0.29078 0.17514,-0.52541 1.9376,-0.76626 3.91657,-0.53523 3.33313,0.38912 4.05966,-0.0623 9.86402,-6.12942 l 6.26588,-6.54949 0.47654,4.95941 c 0.58664,6.10528 3.24693,9.20952 9.35895,10.92078 3.07699,0.8615 4.97613,2.1318 6.14475,4.11012 0.93025,1.57479 2.26934,2.86325 2.97576,2.86325 2.0512,0 1.4933,3.22829 -1.25748,7.27643 -1.39803,2.05738 -2.41053,4.52434 -2.25,5.48213 0.21696,1.29451 -0.28559,1.66115 -1.95813,1.42858 -2.01114,-0.27964 -2.25,0.11266 -2.25,3.69544 0,3.38868 -0.4251,4.21064 -2.75,5.31729 -1.5125,0.71995 -3.18359,2.29483 -3.71353,3.49975 -0.52993,1.20491 -2.00835,2.45298 -3.28537,2.77349 -1.27701,0.32051 -2.74478,1.69518 -3.26172,3.05482 -0.66572,1.75098 -1.69519,2.47207 -3.52925,2.47207 -4.71702,0 -12.24102,3.9327 -13.29201,6.94757 -0.75732,2.17246 -2.41383,3.33641 -7.81458,5.49093 -3.76945,1.50374 -7.52854,3.3354 -8.35354,4.07036 -1.59747,1.42313 -7.92721,3.92704 -14.5,5.73589 -2.2,0.60545 -5.16856,1.95672 -6.59679,3.00282 -3.01273,2.20665 -8.7872,2.06324 -9.96799,-0.24757 -0.42156,-0.825 -1.55403,-4.62843 -2.51659,-8.45206 -1.38661,-5.5081 -2.5465,-7.73268 -5.58437,-10.7104 -4.33,-4.24427 -4.40263,-4.40546 -2.34142,-5.19642 0.83213,-0.31932 2.38119,0.38067 3.5,1.58157 1.10394,1.18494 2.00716,1.60375 2.00716,0.93069 0,-1.57609 -2.56841,-5.62455 -6.71429,-10.58338 -1.80714,-2.1615 -3.28571,-4.65187 -3.28571,-5.53416 0,-0.88229 -2.475,-4.04842 -5.5,-7.03584 -3.025,-2.98742 -5.5,-6.20799 -5.5,-7.15682 0,-0.94883 -0.45,-2.00326 -1,-2.34318 -0.55,-0.33992 -1,-1.82425 -1,-3.29851 0,-4.0934 -3.22099,-10.9818 -5.77392,-12.34809 -1.25402,-0.67113 -2.56751,-2.3752 -2.91885,-3.78682 -0.84937,-3.41263 -11.2078,-19.0912 -13.09033,-19.81359 -0.81501,-0.31275 -2.30474,-0.0547 -3.31052,0.5734 -1.54719,0.96624 -2.20298,0.64419 -4.26028,-2.09218 -4.02435,-5.35268 -6.6461,-11.01835 -6.6461,-14.36241 0,-3.30768 1.32884,-4.3718 5.45934,-4.3718 3.19531,0 4.13642,-1.46441 7.12327,-11.08411 1.71805,-5.53331 2.66519,-11.00788 2.76523,-15.9834 l 0.15216,-7.5675 -4.26615,0.17713 c -2.34639,0.0974 -5.08182,0.91531 -6.07874,1.81751 -2.47407,2.239 -7.80248,2.06291 -10.88224,-0.35963 -2.969187,-2.33556 -7.27287,-2.67131 -7.27287,-0.56739 0,2.4616 -3.649331,2.75922 -7.635588,0.62272 -2.274863,-1.21926 -4.152446,-1.6673 -4.698547,-1.1212 -1.120346,1.12035 -3.866922,0.2002 -3.101104,-1.03891 0.3043,-0.49237 0.186565,-0.89522 -0.261633,-0.89522 -0.448198,0 -1.456485,-1.4625 -2.240639,-3.25 -0.784153,-1.7875 -2.131503,-3.80395 -2.994111,-4.481 -1.134449,-0.89041 -1.247815,-1.44446 -0.409746,-2.00255 1.492777,-0.99406 0.517988,-6.26645 -1.158578,-6.26645 -1.331065,0 -2.683436,-3.48328 -1.724625,-4.4421 0.306847,-0.30684 2.395404,-0.61114 4.641238,-0.67621 6.757591,-0.19581 10.098787,-1.25956 9.944444,-3.16607 -0.115541,-1.42722 0.7738,-1.71562 5.290493,-1.71562 3.916581,0 6.207003,-0.57492 8.220238,-2.06337 3.908808,-2.8899 13.876368,-4.21686 16.964918,-2.2585 1.28522,0.81492 2.59871,1.21974 2.91885,0.89959 0.32015,-0.32015 1.2936,0.0305 2.16324,0.77916 3.65978,3.15079 15.40073,4.51523 22.31938,2.59379 7.44943,-2.06885 6.76937,-7.05157 -1.70204,-12.47067 -5.3977,-3.45286 -6.93777,-5.48 -4.16331,-5.48 1.49904,0 9.5554,3.24531 13.78141,5.55151 1.45986,0.79667 4.67336,1.44849 7.14112,1.44849 3.74977,0 5.27001,0.64719 9.25446,3.93975 6.13267,5.06774 19.68834,12.02087 23.77791,12.19643 2.35304,0.10102 2.59119,0.2481 0.92222,0.56955 -1.72569,0.33239 -2.25,1.11941 -2.25,3.37739 0,1.61921 -0.54413,3.8153 -1.20917,4.88021 -1.59156,2.54848 1.27946,9.03667 3.99871,9.03667 1.00205,0 3.34675,1.125 5.21046,2.5 3.44082,2.53855 7.00371,3.04926 12.96095,1.85781 4.08653,-0.81731 4.47235,-1.95363 3.0271,-8.91538 -0.86046,-4.14483 -1.69373,-5.81421 -3.08357,-6.17766 -1.04746,-0.27392 -1.90448,-1.15269 -1.90448,-1.95283 0,-0.80014 -0.675,-2.1298 -1.5,-2.9548 -0.825,-0.825 -1.50277,-2.48035 -1.50616,-3.67857 -0.003,-1.19821 -0.67839,-3.46751 -1.5,-5.04288 -0.82161,-1.57537 -1.49384,-3.97128 -1.49384,-5.32426 0,-1.92223 -0.87214,-2.82625 -3.98983,-4.13569 -2.19441,-0.92166 -3.99441,-2.15281 -4,-2.7359 -0.006,-0.58309 -1.41357,-2.49559 -3.12883,-4.25 -1.71526,-1.75441 -2.60412,-3.18984 -1.97525,-3.18984 0.62888,0 1.58417,-1.15927 2.12287,-2.57617 0.87046,-2.2895 1.45191,-2.54205 5.22525,-2.2696 2.89795,0.20923 4.21404,-0.084 4.14579,-0.92384 -0.055,-0.67671 -0.1675,-2.32325 -0.25,-3.65896 -0.20091,-3.25283 -2.62762,-5.5208 -5.19018,-4.85067 -2.72452,0.71248 -7.95982,-4.2167 -7.95982,-7.49437 0,-1.31969 -1.34149,-4.273 -2.9811,-6.56291 -1.6396,-2.28992 -3.25808,-5.56213 -3.59662,-7.27158 -0.52857,-2.66906 -0.28405,-3.19685 1.7311,-3.73635 1.29064,-0.34553 3.66467,-0.63439 5.27562,-0.6419 1.61095,-0.008 4.42028,-0.5529 6.24296,-1.21199 2.69655,-0.97509 5.13173,-0.87365 13.071,0.54448 5.36637,0.95855 11.92542,2.42728 14.57566,3.26384 3.66702,1.1575 5.15024,1.24579 6.2062,0.36943 0.76316,-0.63338 1.84798,-0.86704 2.41071,-0.51926 1.24404,0.76886 5.06447,-1.13896 5.06447,-2.52906 0,-0.5492 -1.575,-1.92781 -3.5,-3.06359 -1.925,-1.13578 -3.5,-2.68523 -3.5,-3.44322 0,-0.758 -1.16957,-2.1445 -2.59904,-3.08113 -2.27812,-1.49268 -2.5237,-2.17413 -1.98886,-5.51879 1.16773,-7.30264 -3.0761,-9.96776 -8.54482,-5.36614 -3.55187,2.9887 -4.95551,2.54632 -8.88813,-2.80121 -2.8139,-3.82631 -2.91313,-4.23211 -1.31978,-5.3972 0.94759,-0.6929 2.44688,-1.25981 3.33176,-1.25981 4.29759,0 5.35622,-6.01741 1.84413,-10.4823 -1.58772,-2.01846 -2.50573,-5.38523 -3.44403,-12.63075 -0.90978,-7.02543 -2.45079,-12.79872 -5.33526,-19.9883 -2.23078,-5.56026 -4.05597,-10.28768 -4.05597,-10.50537 0,-0.21769 2.84273,-1.73893 6.31717,-3.38052 3.47445,-1.6416 8.06352,-4.49432 10.19794,-6.33938 l 3.88076,-3.35465 -2.21194,-2.81203 c -1.21657,-1.54661 -2.04973,-2.97423 -1.85147,-3.17249 0.19825,-0.19825 1.89205,0.26654 3.764,1.03287 6.35407,2.60122 7.90354,2.86741 7.90354,1.35778 0,-1.22707 -1.45659,-2.15419 -9,-5.72848 -0.825,-0.39091 -1.6608,-1.5295 -1.85734,-2.53019 -0.19654,-1.00069 -1.26303,-2.55283 -2.36999,-3.44919 -1.9968,-1.6169 -1.99201,-1.64326 0.60734,-3.34642 1.78886,-1.17211 2.61999,-2.60043 2.61999,-4.5025 0,-3.94033 1.99475,-6.27185 4.73875,-5.53878 1.23132,0.32894 2.00974,0.96864 1.72982,1.42155 -0.27991,0.45291 1.41265,1.20095 3.76125,1.66232 3.87039,0.76031 4.29951,1.14056 4.58344,4.06151 0.18802,1.93423 1.08812,3.63736 2.25135,4.2599 1.06595,0.57048 3.05005,3.23158 4.40911,5.91356 1.35906,2.68198 3.83345,5.84646 5.49865,7.03219 3.66601,2.61042 3.69207,3.00688 0.52718,8.02038 l -2.50044,3.96096 2.47088,0.62016 c 1.61265,0.40474 3.02698,0.0641 4.07188,-0.98084 0.88054,-0.88055 1.98309,-1.60099 2.4501,-1.60099 0.46702,0 1.15227,-1.38022 1.52278,-3.06716 0.48738,-2.219 0.19467,-3.59645 -1.05851,-4.98119 -1.65566,-1.82949 -1.6267,-1.95622 0.6558,-2.86945 2.11612,-0.84666 1.92179,-0.96264 -1.70705,-1.01881 -4.6625,-0.0722 -7.40499,-2.35532 -7.40499,-6.16473 0,-1.7805 -0.97779,-2.97043 -3.6023,-4.38382 l -3.6023,-1.93997 2.8523,-2.32269 c 2.81506,-2.29236 2.82619,-2.34331 0.8523,-3.90219 -1.19682,-0.94519 -1.39762,-1.40205 -0.5,-1.13765 0.825,0.24301 2.54285,1.98215 3.81745,3.86475 2.41176,3.56219 5.44505,5.28043 8.12019,4.59975 0.98917,-0.25169 0.30358,-0.87469 -1.86871,-1.69813 -3.25985,-1.2357 -3.31902,-1.34205 -1.18575,-2.1312 1.23492,-0.45683 1.96484,-1.2844 1.62205,-1.83905 -0.93914,-1.51955 2.32882,-1.22484 10.99477,0.99154 4.30096,1.1 8.4495,2 9.21898,2 2.59164,0 0.22873,-1.93699 -3.63065,-2.97622 -2.10498,-0.56681 -5.11531,-2.04154 -6.68963,-3.27717 l -2.86239,-2.24661 6.48184,-0.77614 c 3.56502,-0.42687 8.16935,-0.74614 10.23185,-0.70949 4.76329,0.0847 4.76154,-1.03807 -0.005,-3.26012 -2.05969,-0.96016 -2.75398,-1.57043 -1.54285,-1.35616 1.21113,0.21428 2.33672,-0.0144 2.5013,-0.50815 0.16459,-0.49377 3.22367,-1.59191 6.79795,-2.44032 3.57429,-0.84842 9.10415,-2.22498 12.28859,-3.05903 3.18444,-0.83405 8.58444,-1.43971 12,-1.3459 3.41556,0.0938 8.13366,-0.16361 10.48466,-0.57203 3.56772,-0.61979 4.17671,-1.05086 3.68286,-2.60685 -0.8731,-2.75089 2.88955,-3.74826 10.04259,-2.66197 3.3,0.50114 7.21714,0.95091 8.70476,0.99947 1.54107,0.0503 2.83178,0.72778 3,1.57463 0.23522,1.18417 2.42972,1.53237 10.79524,1.71288 5.775,0.12461 11.43689,0.42608 12.58197,0.66995 3.44726,0.73416 9.57969,4.76864 8.90578,5.85905 -0.5392,0.87245 -3.79389,2.79803 -12.62151,7.46731 -4.21535,2.22967 -0.4728,3.45438 4.62883,1.51474 1.44391,-0.54897 2.34664,-1.44897 2.00609,-2 -0.34066,-0.55103 0.0458,-1.00187 0.85868,-1.00187 0.81289,0 2.79126,-0.75372 4.39639,-1.67494 2.83519,-1.62717 3.01841,-1.59866 6.42543,1 3.29769,2.51528 4.14657,2.67494 14.22165,2.67494 6.15236,0 10.47605,0.38602 10.15433,0.90658 -0.68078,1.10151 18.2372,2.65412 19.23668,1.57876 0.38807,-0.41753 0.14308,-0.96004 -0.54442,-1.20558 -0.6875,-0.24553 -1.25,-0.92161 -1.25,-1.50238 0,-0.70295 1.75508,-0.80385 5.25,-0.30183 2.8875,0.41478 6.375,0.72969 7.75,0.69981 4.96779,-0.10796 10.63214,2.07758 17.5,6.75223 6.29982,4.288 12.11311,7.07241 14.7658,7.07241 0.53205,0 0.76613,-1.05266 0.52018,-2.33925 -0.42625,-2.2298 -0.25626,-2.30596 3.63342,-1.62787 2.24433,0.39125 8.8056,0.43141 14.5806,0.0892 l 10.5,-0.62213 -3.5,-1.72723 c -2.7843,-1.37404 -3.05695,-1.73189 -1.33333,-1.75 1.19166,-0.0125 2.34645,-0.56213 2.56619,-1.22136 0.30945,-0.92834 3.09026,-0.90884 12.33334,0.0865 12.05814,1.29845 15.92765,1.63063 22.61237,1.94121 2.02322,0.094 4.3629,0.85524 5.19931,1.69165 2.40584,2.40584 9.86624,3.58799 27.62212,4.37689 16.58304,0.73679 18.26015,1.09894 26,5.61439 2.97937,1.73816 30.4642,2.16395 31.5,0.48798 0.33992,-0.55 1.29303,-1 2.11803,-1 0.825,0 1.22189,0.45 0.88197,1 -0.33992,0.55 0.0835,1 0.94098,1 0.85746,0 1.55902,0.38851 1.55902,0.86336 0,1.02132 11.7884,3.68158 12.62167,2.8483 0.31468,-0.31467 -1.27147,-1.51267 -3.52476,-2.66222 -2.2533,-1.14955 -4.09691,-2.35448 -4.09691,-2.67763 0,-0.71507 17.56318,0.36563 28.32671,1.743 8.6809,1.11085 39.87009,8.6296 49.07984,11.83162 3.2486,1.12946 7.56412,2.05357 9.59004,2.05357 5.78078,0 19.15348,3.78396 21.22295,6.00527 1.54388,1.65717 1.59794,1.99473 0.31942,1.99473 -2.33704,0 -1.84795,1.82398 1.21104,4.51637 2.20258,1.93862 2.40164,2.42672 1,2.45203 -0.9625,0.0174 -1.75,-0.44496 -1.75,-1.02742 0,-0.58246 -0.47136,-0.7677 -1.04747,-0.41164 -1.34283,0.82992 -10.09329,-1.12557 -16.13791,-3.60638 -2.57696,-1.05763 -6.85196,-1.93891 -9.5,-1.9584 -2.64804,-0.0195 -5.93962,-0.67854 -7.31462,-1.46456 -1.375,-0.78602 -3.4,-1.4163 -4.5,-1.40061 -1.49564,0.0213 -1.16954,0.44156 1.2931,1.6664 4.25236,2.11499 4.09801,5.44343 -0.2931,6.32069 -2.24321,0.44814 -2.59618,0.77764 -1.3992,1.30616 0.88044,0.38876 2.00544,0.59193 2.5,0.45149 0.49456,-0.14043 2.2492,0.4729 3.8992,1.36296 1.65,0.89006 5.43909,2.89985 8.4202,4.4662 7.13363,3.74819 7.3461,4.90192 0.83131,4.51407 -4.54087,-0.27034 -5.80159,0.0951 -9.31654,2.70048 -2.23577,1.65722 -4.93577,4.83371 -6,7.05885 -1.36918,2.86274 -2.37357,3.86042 -3.43497,3.41199 -6.92935,-2.92755 -14,-2.81791 -14,0.21708 0,1.37782 -0.23102,1.37584 -2.22251,-0.0191 -2.73449,-1.91527 -3.77749,-1.96922 -3.77749,-0.19533 0,0.895 -0.81623,1.20529 -2.38278,0.90583 -2.71038,-0.51812 -4.3996,1.35046 -2.73009,3.01997 0.61208,0.61208 1.11287,2.06186 1.11287,3.22174 0,3.1018 2.2785,5.68696 5.30519,6.0192 1.46264,0.16056 4.17094,1.79493 6.01845,3.63193 1.84751,1.837 4.44299,4.14536 5.76773,5.1297 2.37172,1.76227 2.37415,1.78039 0.15863,1.18261 -3.38654,-0.91374 -2.80736,1.37258 1.45295,5.73553 l 3.70295,3.79216 -2.70295,0 c -3.36927,0 -3.59447,2.42211 -0.52864,5.68555 1.78496,1.89999 1.88506,2.31445 0.55902,2.31445 -2.56745,0 -2.98467,1.76594 -1.1507,4.87059 1.69728,2.87327 1.37124,8.12941 -0.50428,8.12941 -0.98651,0 -20.75215,-17.60875 -28.71956,-25.58559 -3.24473,-3.24856 -5.40838,-6.39541 -5.86547,-8.53085 -0.39835,-1.86096 -1.11676,-3.87299 -1.59647,-4.47118 -0.55627,-0.69365 0.0289,-1.56987 1.61547,-2.41897 1.36823,-0.73226 2.51351,-2.04283 2.54508,-2.91239 0.20838,-5.73929 1.18049,-10.67515 2.56361,-13.01658 1.53784,-2.60336 1.49556,-2.83562 -1.00792,-5.53691 -1.4372,-1.55077 -2.61309,-3.42887 -2.61309,-4.17355 0,-1.6643 -3.60643,-1.79981 -4.61167,-0.17329 -0.42223,0.68317 0.12965,1.75128 1.30969,2.53479 2.01906,1.34061 2.01195,1.38348 -0.71309,4.30065 -2.6551,2.8423 -2.85927,2.89327 -5.77115,1.44063 -1.66026,-0.82825 -3.27344,-2.16985 -3.58484,-2.98133 -0.41162,-1.07268 -2.19647,-1.47543 -6.53854,-1.47543 -3.2848,0 -6.19693,0.36335 -6.4714,0.80745 -0.27446,0.4441 -0.7985,3.06496 -1.16452,5.82415 l -0.66549,5.0167 3.85551,1.52041 3.8555,1.52041 -7.8004,0.77765 c -6.43051,0.64108 -8.01106,0.51147 -9,-0.73802 -1.53998,-1.94573 -10.7084,-3.33255 -11.67646,-1.76619 -0.44939,0.72712 -5.41844,1.19994 -14.00161,1.33228 -12.1528,0.18739 -13.40099,0.37836 -14.41327,2.20516 -0.60954,1.1 -1.50341,2.28719 -1.98638,2.6382 -0.48296,0.351 -0.57707,1.12529 -0.20913,1.72063 0.36794,0.59534 -0.0244,2.4233 -0.87188,4.06214 -0.84748,1.63884 -1.54087,3.81463 -1.54087,4.83509 0,1.02046 -1.125,3.38023 -2.5,5.24394 -3.38517,4.58834 -3.1564,5.7923 1.25,6.57824 2.0625,0.36787 4.7625,1.5917 6,2.71962 2.17602,1.98334 2.2495,1.9875 2.23469,0.12645 -0.0224,-2.81735 -1.16688,-4.16361 -3.98469,-4.68731 -2.11672,-0.3934 -2.00174,-0.48551 0.75,-0.60082 1.91947,-0.0804 3.25,0.35023 3.25,1.05194 0,1.43691 4.22211,7.79543 5.18261,7.80505 0.37544,0.004 0.96826,-0.89317 1.31739,-1.99317 0.38096,-1.20029 1.5075,-1.99609 2.81739,-1.99023 3.74775,0.0168 12.55891,4.74391 16.15104,8.66493 3.83156,4.18237 5.74852,4.14212 2.44987,-0.0514 -1.19266,-1.51622 -1.84327,-3.3764 -1.49675,-4.27941 0.33712,-0.87854 0.10009,-2.21531 -0.52674,-2.9706 -0.62684,-0.75533 -0.73139,-1.37329 -0.23234,-1.37329 0.49905,0 3.14165,2.35801 5.87244,5.24002 2.7308,2.88201 9.60739,9.78345 15.28131,15.33653 9.33912,9.14021 10.0258,10.05388 7.25,9.64648 -1.68642,-0.24752 -3.06622,-0.004 -3.06622,0.54135 0,2.81324 3.40766,8.46633 6.59322,10.93773 1.98352,1.53884 4.57398,3.6108 5.75659,4.60435 l 2.15019,1.80647 -2.18426,-1.05647 c -3.25957,-1.57656 -4.31574,-1.29671 -4.31574,1.14354 0,2.7959 -1.0495,1.70843 -4.53591,-4.7 -1.49609,-2.75 -4.01962,-6.8 -5.60783,-9 -1.58822,-2.2 -4.65525,-6.475 -6.81563,-9.5 -7.5771,-10.60958 -12.929,-14.19187 -11.65024,-7.79807 0.35221,1.76105 1.43626,4.12355 2.409,5.25 0.97274,1.12644 2.78598,3.94521 4.02941,6.26393 1.98447,3.70058 2.19039,5.16725 1.68481,12 -1.4358,19.40442 -6.27152,30.16125 -12.9639,28.83756 -1.62266,-0.32094 -3.23364,-1.042 -3.57995,-1.60235 -0.6579,-1.06451 -3.96976,-0.25747 -3.96976,0.96736 0,0.38744 -0.95166,1.72593 -2.11479,2.97441 -1.73122,1.85824 -1.99626,3.01121 -1.46129,6.35675 0.59962,3.74985 0.35305,4.39449 -2.99072,7.81882 l -3.64422,3.73202 6.56259,5.15733 c 6.46281,5.07893 12.09919,11.84343 14.45603,17.34939 1.56669,3.66006 0.16492,6.32034 -3.78782,7.1885 -1.64826,0.36202 -3.25356,1.0736 -3.56733,1.58129 -0.31377,0.50768 -1.61433,0.92306 -2.89015,0.92306 -2.65974,0 -5.13398,-4.62344 -4.14379,-7.74324 0.40046,-1.26175 -0.23772,-2.67774 -1.91851,-4.25676 -1.54197,-1.4486 -2.30794,-3.02978 -1.97535,-4.07767 0.88913,-2.8014 -2.99303,-5.6651 -6.81516,-5.02725 -1.91382,0.31939 -4.71066,-2.15598 -4.72314,-4.18026 -0.0394,-6.38756 -1.92536,-7.99283 -9.27136,-7.89145 -2.94308,0.0406 -5.03485,0.90257 -8.02837,3.30823 -2.86272,2.30054 -3.84385,2.72053 -3.35021,1.4341 0.38395,-1.00056 0.2091,-2.40839 -0.38855,-3.12853 -0.77285,-0.93122 -0.77886,-1.88443 -0.0208,-3.30081 1.53776,-2.87334 0.2953,-5.13636 -2.82001,-5.13636 -1.96588,0 -3.53456,1.11316 -5.89301,4.18178 -1.7677,2.29999 -3.214,4.54999 -3.214,5 0,0.45002 -1.35,0.81822 -3,0.81822 -2.26812,0 -3,0.45805 -3,1.87756 0,2.42942 1.89525,3.95149 5.92353,4.75715 2.14103,0.4282 3.53917,1.45209 4.13969,3.03156 1.3309,3.50054 3.86712,4.07753 5.9259,1.34815 1.6955,-2.24777 1.85971,-2.26689 7.54787,-0.87861 6.38202,1.55762 8.05751,3.42589 3.98832,4.44719 -2.67239,0.67073 -9.52531,8.61933 -9.52531,11.04826 0,0.73901 1.76865,2.46015 3.93033,3.82476 2.16168,1.36461 5.3099,4.48625 6.99605,6.93697 1.68614,2.45073 4.52999,5.6606 6.31967,7.13305 1.78967,1.47245 2.72254,2.39912 2.07305,2.05926 -2.72896,-1.42796 -2.08586,1.44459 0.78031,3.48549 l 3.12293,2.22372 -2.61117,1.58436 c -3.09461,1.87768 -3.36162,3.12113 -0.67023,3.12113 1.06754,0 2.2191,0.45 2.55902,1 0.95153,1.53961 2.29726,1.18846 2.87422,-0.75 0.28647,-0.9625 0.26735,1.625 -0.0425,5.75 -0.36361,4.84074 -1.05414,7.78354 -1.94754,8.29969 -0.7613,0.43983 -1.38419,1.8022 -1.38419,3.02749 0,1.2253 -0.72165,3.2581 -1.60366,4.51735 -0.93631,1.33677 -1.42452,3.51008 -1.17319,5.22251 0.23675,1.61313 0.12926,2.93296 -0.23887,2.93296 -0.36814,0 -1.46757,1.4625 -2.44318,3.25 -0.97561,1.7875 -3.50291,4.6 -5.61623,6.25 -2.11331,1.65 -4.11627,3.7875 -4.45102,4.75 -0.33474,0.9625 -1.56122,1.75 -2.72551,1.75 -1.16429,0 -4.14431,0.98146 -6.62228,2.18102 -3.13992,1.52001 -4.62469,1.82308 -4.89905,1 -0.6422,-1.92662 -2.227,-1.34381 -2.227,0.81898 0,1.11111 -0.66667,2 -1.5,2 -0.825,0 -1.5,0.48032 -1.5,1.06739 0,0.58706 -0.82752,0.80474 -1.83894,0.48373 -2.38292,-0.75631 -8.73798,1.90396 -9.53977,3.99341 -0.34171,0.89048 -0.62129,2.48224 -0.62129,3.53726 0,1.05501 -0.37777,1.91821 -0.83948,1.91821 -0.97078,0 -3.16052,-4.45743 -3.16052,-6.43355 0,-1.61478 -5.66555,-2.62292 -8.58083,-1.52689 -3.1214,1.17351 -10.30749,8.66728 -11.01513,11.48676 -1.13299,4.51419 0.52268,7.28469 10.42803,17.44961 11.12828,11.4199 13.61598,16.53644 13.37877,27.51662 -0.11828,5.47489 -0.41373,6.23237 -3.42015,8.76862 -1.80988,1.52683 -4.49169,3.04163 -5.95958,3.36622 -1.65732,0.36648 -2.88382,1.44647 -3.23593,2.84939 -0.31186,1.24257 -2.6361,3.95468 -5.16497,6.0269 l -4.59795,3.76767 0.28595,-4.64998 c 0.24021,-3.9062 -0.0837,-4.90889 -2.02496,-6.26861 -1.93833,-1.35766 -2.45211,-1.39566 -3.18677,-0.23569 -0.69501,1.09739 -0.87902,1.02159 -0.89117,-0.36707 -0.008,-0.9625 -0.46531,-1.75 -1.01531,-1.75 -0.55,0 -0.94671,-0.3375 -0.88158,-0.75 0.30812,-1.95139 -0.24035,-2.60563 -1.07632,-1.28388 -0.73696,1.16522 -1.15584,0.85737 -2.04098,-1.5 -1.48874,-3.96493 -5.35925,-7.4501 -9.56276,-8.61075 -2.72533,-0.7525 -3.43836,-1.45807 -3.43836,-3.40237 0,-1.74012 -0.55014,-2.453 -1.89301,-2.453 -2.11671,0 -3.10659,1.85751 -3.10781,5.83179 -4.5e-4,1.46751 -0.68421,5.94393 -1.51946,9.94758 -1.11483,5.34374 -1.23423,7.81082 -0.44901,9.27801 0.5883,1.09925 1.41011,1.78821 1.82625,1.53103 0.41613,-0.25719 1.9198,2.54271 3.34148,6.22199 1.87248,4.84595 3.35694,7.103 5.38629,8.1896 1.54077,0.825 5.12736,3.83875 7.9702,6.69723 5.01295,5.04053 5.18453,5.40233 5.69112,12 0.37273,4.85441 1.296,8.1632 3.22363,11.55277 1.88144,3.30833 2.29597,4.76075 1.36581,4.78544 -0.73452,0.0195 -0.21049,0.67854 1.16451,1.46456 l 2.5,1.42913 -2.5,-0.025 c -1.375,-0.0137 -3.625,-1.15798 -5,-2.54273 z m 14,-53.30237 c 0,-0.51754 -0.45,-1.2191 -1,-1.55902 -0.55,-0.33992 -1,0.0835 -1,0.94098 0,0.85746 0.45,1.55902 1,1.55902 0.55,0 1,-0.42344 1,-0.94098 z m -399,-117.11804 c 0,-0.51754 -0.45,-0.94098 -1,-0.94098 -0.55,0 -1,0.70156 -1,1.55902 0,0.85746 0.45,1.2809 1,0.94098 0.55,-0.33992 1,-1.04148 1,-1.55902 z m 91.15035,-80.61927 c -2.70506,-3.39021 -5.56402,-4.31496 -6.40498,-2.07171 -1.37227,3.66054 4.11083,8.48126 7.34752,6.45991 1.56301,-0.97611 1.48309,-1.34818 -0.94254,-4.3882 z m 26.79177,-18.21356 c 1.14962,-2.14808 -1.41034,-8.55484 -3.02061,-7.55964 -0.50683,0.31324 -0.92151,-0.16953 -0.92151,-1.07283 0,-0.90329 -0.5625,-1.44391 -1.25,-1.20138 -0.6875,0.24252 -1.19343,1.14444 -1.12429,2.00425 0.0757,0.94163 -0.42136,1.35336 -1.25,1.03538 -0.82264,-0.31567 -1.37571,0.13076 -1.37571,1.11047 0,0.9011 0.675,1.89739 1.5,2.21397 0.825,0.31659 1.5,1.35246 1.5,2.30195 0,0.94949 0.3,2.02635 0.66667,2.39301 1.31801,1.31802 4.28288,0.62944 5.27545,-1.22518 z m -8.65645,-2.12373 c -0.56316,-2.15355 -2.28567,-3.75514 -2.28567,-2.12522 0,1.7055 1.18411,4.1408 2.01337,4.1408 0.43966,0 0.5622,-0.90701 0.2723,-2.01558 z m 76.65992,-8.10453 c 2.26056,-4.33698 2.15362,-5.51567 -0.41111,-4.53149 -2.01924,0.77485 -3.96481,5.0878 -3.19732,7.08783 0.86969,2.26639 1.22639,2.01369 3.60843,-2.55634 z m 20.70071,-3.19285 c 0.37787,-0.37787 -1.30047,-0.65541 -3.72963,-0.61675 -3.05217,0.0486 -3.82522,0.30214 -2.50223,0.82076 2.23502,0.87616 5.2504,0.77744 6.23186,-0.20401 z m -13.91713,-1.29121 c -0.33229,-0.33229 -1.1948,-0.36781 -1.91667,-0.0789 -0.79773,0.31922 -0.56078,0.55618 0.60417,0.60416 1.05416,0.0434 1.64479,-0.19293 1.3125,-0.52522 z m 130.27083,-32.42627 c 0,-1.00913 0.84065,-2.1016 1.86812,-2.4277 5.33678,-1.69383 7.08956,-7.58843 4.19931,-14.12232 -2.89296,-6.54003 -4.06743,-6.41611 -4.06743,0.42916 0,7.74259 -3.92084,15.87914 -8.40514,17.44238 -2.63754,0.91945 -2.76138,1.12493 -1.04373,1.73188 2.85356,1.00834 7.44887,-0.87534 7.44887,-3.0534 z m 270.72917,-84.57373 c -0.33229,-0.33229 -1.1948,-0.36782 -1.91667,-0.079 -0.79773,0.31923 -0.56078,0.55619 0.60417,0.60417 1.05416,0.0434 1.64479,-0.19293 1.3125,-0.52522 z m -451.72917,-8.73531 c 0,-1.52232 -4.9319,-4.09014 -5.87923,-3.06106 -0.34142,0.37089 -0.12208,0.85397 0.48742,1.07351 0.6095,0.21954 1.9595,1.04362 3,1.83129 2.3575,1.78467 2.39181,1.78691 2.39181,0.15626 z m 113.5,-28.66052 c -0.33992,-0.55 -1.51803,-1 -2.61803,-1 -1.1,0 -1.72189,0.45 -1.38197,1 0.33992,0.55 1.51803,1 2.61803,1 1.1,0 1.72189,-0.45 1.38197,-1 z M 334.43609,736.636 c 0.048,-1.16495 0.28494,-1.4019 0.60416,-0.60417 0.28887,0.72187 0.25335,1.58438 -0.0789,1.91667 -0.33229,0.33229 -0.56864,-0.25834 -0.52522,-1.3125 z m 289.98444,-14.06789 c -0.0349,-0.63318 -1.63839,-2.0805 -3.56339,-3.21628 -2.69484,-1.59 -3.5,-2.71897 -3.5,-4.90765 0,-1.56342 -0.62011,-3.69064 -1.37801,-4.72714 -1.30569,-1.78563 -1.46871,-1.79385 -3.10595,-0.15661 -1.29126,1.29126 -2.06261,1.45018 -3.05225,0.62885 -1.00871,-0.83716 -1.59855,-0.58666 -2.47507,1.05113 -1.54124,2.87983 -2.33828,1.84695 -1.50443,-1.94957 0.45061,-2.0516 1.27682,-3.07151 2.48818,-3.07151 0.99745,0 2.07257,-0.675 2.38916,-1.5 0.6963,-1.81453 4.29753,-1.99793 4.90894,-0.25 0.31672,0.90547 1.01016,0.74176 2.51589,-0.59396 1.22247,-1.08443 1.83049,-2.49067 1.47616,-3.41404 -0.40879,-1.06529 -0.21095,-1.3281 0.61533,-0.81743 0.6698,0.41396 1.86624,0.50383 2.65875,0.19972 1.11783,-0.42895 1.2176,-1.14033 0.44496,-3.17253 -0.54778,-1.44078 -0.74689,-3.02261 -0.44245,-3.5152 0.83091,-1.34445 4.56399,1.35212 3.97971,2.87473 -0.27762,0.72347 0.11285,2.5244 0.86772,4.00206 2.06838,4.04888 2.88309,8.93533 2.14539,12.86761 -0.59367,3.16452 -0.79238,3.34526 -1.94492,1.76905 -1.82427,-2.49484 -3.80575,-1.02398 -2.49526,1.85223 0.67683,1.48549 0.68541,3.06057 0.0257,4.71429 -0.54492,1.36591 -1.01928,1.96542 -1.05414,1.33225 z m -250.73607,-4.59878 c -1.34005,-2.11842 -1.32733,-22.91423 0.0138,-22.48514 2.58705,0.82775 8.88463,11.55792 9.38409,15.98915 0.43542,3.86299 0.18577,4.69497 -1.83305,6.10901 -2.77669,1.94487 -6.46012,2.1333 -7.56479,0.38698 z m 205.71431,-14.81291 c -0.0449,-1.68465 5.60384,-7.62496 6.44797,-6.78083 0.28075,0.28075 -1.04583,2.27295 -2.94795,4.4271 -2.18736,2.47719 -3.4737,3.34224 -3.50002,2.35373 z m 29.09949,-5.02024 c -2.16148,-2.01373 -2.1878,-2.20779 -0.54555,-4.02246 2.01665,-2.22836 1.44474,-3.14439 -1.96315,-3.14439 -2.1526,0 -2.49239,-0.50494 -2.79167,-4.14848 l -0.34075,-4.14848 3.25,1.01817 c 2.13991,0.6704 3.25,1.65476 3.25,2.88189 0,1.52134 0.5052,1.74637 2.75,1.22493 2.04031,-0.47393 2.3629,-0.37683 1.25,0.37628 -1.28842,0.87188 -1.25315,1.01722 0.25,1.03038 0.9625,0.008 1.75,0.63521 1.75,1.39287 0,0.75765 0.675,1.93775 1.5,2.62244 2.08414,1.72968 1.87242,3 -0.5,3 -1.1,0 -2,-0.62686 -2,-1.39301 0,-1.9997 -2.7247,-2.76679 -3.41724,-0.96206 -0.85419,2.22599 -0.68275,3.06121 0.30755,1.49831 1.3923,-2.19733 2.04669,0.1717 0.72803,2.63563 l -1.20618,2.25377 -2.27104,-2.11579 z m -22.06696,-3.63691 c 0.0408,-0.42897 0.82829,-2.46276 1.75,-4.51955 1.6715,-3.72991 1.67873,-3.73338 2.7903,-1.33784 0.98181,2.1159 0.77353,2.65381 -1.75,4.51954 -1.57545,1.16478 -2.83109,1.76681 -2.7903,1.33785 z m 32.92584,-2.85137 c 0,-0.86428 -0.675,-2.24643 -1.5,-3.07143 -0.825,-0.825 -1.5,-2.12873 -1.5,-2.89718 0,-0.8311 0.60774,-1.16398 1.5,-0.82159 2.14411,0.82277 1.85216,-1.00969 -0.5,-3.13837 -2.66039,-2.40762 -2.52275,-3.5 0.44098,-3.5 2.6681,0 3.47795,0.89079 5.15602,5.67126 0.96035,2.73585 0.87427,3.23374 -0.62688,3.6263 -1.27533,0.33351 -1.60611,1.15578 -1.23852,3.07874 0.29908,1.56454 0.0508,2.6237 -0.61502,2.6237 -0.61412,0 -1.11658,-0.70714 -1.11658,-1.57143 z m -8.25,-10.50867 c -2.24584,-1.30808 -2.36078,-4.09151 -0.13367,-3.23688 1.32726,0.50931 1.43311,0.28014 0.59183,-1.28139 -0.56349,-1.0459 -2.2575,-3.02663 -3.76449,-4.40163 l -2.73998,-2.5 0.59221,2.39405 c 0.41921,1.69472 0.28084,2.08269 -0.4737,1.32815 -0.58625,-0.58625 -1.69118,-0.82597 -2.4554,-0.53271 -0.9554,0.36662 -1.19631,0.0298 -0.77115,-1.07815 0.44457,-1.15854 0.0428,-1.61134 -1.42964,-1.61134 -2.92657,0 -3.49875,1.56255 -1.62137,4.42778 1.53844,2.34797 1.30943,4.57222 -0.47077,4.57222 -0.44445,0 -1.98893,-1.78435 -3.43216,-3.96523 -1.51379,-2.28749 -2.03593,-3.73954 -1.23404,-3.43183 0.76452,0.29338 1.6871,0.0527 2.0502,-0.53477 0.36309,-0.58749 0.12736,-1.06817 -0.52385,-1.06817 -0.79252,0 -0.97756,-1.03228 -0.55963,-3.12194 0.53826,-2.6913 0.41816,-2.95078 -0.87068,-1.88114 -1.26119,1.0467 -1.80516,0.55738 -3.47743,-3.12806 -2.13464,-4.70447 -2.64505,-8.36932 -1.02628,-7.36886 0.63353,0.39154 1,-2.19795 1,-7.06598 l 0,-7.68402 3.125,0.625 c 1.71875,0.34375 3.69268,0.625 4.3865,0.625 1.2294,0 2.03283,2.61269 3.14935,10.24139 0.41835,2.85841 0.16898,3.88668 -1.05664,4.35699 -2.55113,0.97897 -2.08425,6.28096 0.64579,7.33368 1.99912,0.77088 2.05487,0.94647 0.5,1.57477 -2.84089,1.14796 -2.00458,2.49317 1.55,2.49317 1.815,0 3.74319,0.44319 4.28487,0.98487 0.54167,0.54167 2.54417,1.15557 4.45,1.36421 1.90582,0.20864 3.28366,0.77795 3.06185,1.26513 -0.2218,0.48719 -1.3468,0.7595 -2.5,0.60515 -2.08625,-0.27924 -2.08673,-0.27277 -0.0967,1.29473 1.39718,1.10053 2,2.76715 2,5.52942 0,4.2756 -0.12436,4.40568 -2.75,2.87639 z m 14.13011,-119.6441 c -0.89094,-0.20479 -2.41065,-2.12592 -3.37712,-4.26918 -0.96648,-2.14326 -2.81051,-4.88634 -4.09784,-6.09573 l -2.34061,-2.19888 2.51311,-3.10601 c 1.38222,-1.7083 3.77873,-4.48911 5.32559,-6.17958 1.54687,-1.69047 2.98894,-3.59647 3.20462,-4.23556 0.24219,-0.71766 3.37392,-1.26311 8.18986,-1.42643 7.05125,-0.23912 7.75136,-0.44298 7.31348,-2.12966 -0.60408,-2.3269 1.36753,-5.62737 3.37935,-5.65701 0.8302,-0.0122 2.56766,-0.83614 3.86103,-1.83092 1.93465,-1.48801 2.44869,-3.01845 2.89929,-8.63201 0.46766,-5.82601 0.28295,-7.01693 -1.2637,-8.14787 -1.2275,-0.89757 -1.83975,-2.70138 -1.89929,-5.59575 -0.0761,-3.69992 0.21307,-4.31395 2.16212,-4.59076 2.64132,-0.37513 3.05701,1.43842 0.5,2.18137 -1.23533,0.35893 -1.11734,0.45402 0.40117,0.32333 2.67343,-0.2301 10.34883,8.13893 10.34883,11.28404 0,1.18926 0.46041,3.02258 1.02314,4.07405 0.82553,1.54252 0.72896,1.79886 -0.5,1.32727 -1.94445,-0.74616 -1.93968,1.49467 0.009,4.07062 0.80751,1.06762 1.4682,3.00247 1.4682,4.29966 0,1.29719 0.6509,3.61723 1.44645,5.15565 2.06161,3.98672 0.98515,7.4287 -2.0825,6.65877 -1.70853,-0.42873 -2.36429,-0.17193 -2.36429,0.92574 0,2.07077 -1.62386,1.92035 -2.49317,-0.23095 -0.6283,-1.55487 -0.80389,-1.49912 -1.57477,0.5 -0.94824,2.4591 -2.95302,2.84433 -6.08345,1.16898 -2.47614,-1.32519 -4.02495,-0.1568 -1.59487,1.20314 1.2359,0.69165 1.44005,1.31917 0.70756,2.175 -0.56623,0.66158 -1.64533,2.09254 -2.398,3.17991 -1.31586,1.90101 -1.52558,1.81022 -5.4544,-2.3614 -2.69667,-2.86332 -4.62139,-4.13295 -5.66079,-3.73409 -2.06279,0.79156 -0.89252,2.61846 1.67733,2.61846 1.59994,0 1.94318,0.5582 1.69098,2.75 -0.24995,2.17232 -0.77166,2.68723 -2.48354,2.45118 -1.46562,-0.20209 -2.37761,0.36439 -2.81739,1.75 -0.77182,2.4318 -1.8173,2.59501 -3.51549,0.54882 -2.27889,-2.74589 -3,-1.55823 -3,4.94098 0,6.65499 -0.37055,7.46675 -3.11989,6.83482 z m 4.08471,-15.21006 c 1.42888,-2.66989 1.29656,-3.73241 -0.46482,-3.73241 -0.825,0 -1.5,0.34649 -1.5,0.76998 0,0.42348 -1.4625,0.91098 -3.25,1.08333 l -3.25,0.31336 3,1.64392 c 3.97898,2.18038 4.25821,2.17638 5.46482,-0.0782 z m 5.03518,-4.12476 c 0,-0.51754 -0.675,-0.94098 -1.5,-0.94098 -1.54641,0 -1.9867,1.17996 -0.86052,2.30615 0.79893,0.79893 2.36052,-0.10419 2.36052,-1.36517 z m -529.6159,-3.40207 c -2.35333,-1.7208 -1.87881,-2.193 3.39444,-3.37782 3.36696,-0.7565 4.22146,-0.67158 4.22146,0.41953 0,0.75241 -1.29036,2.03529 -2.86747,2.85085 -2.44462,1.26416 -3.14486,1.28 -4.74843,0.10744 z m 537.6159,-15.53891 c 0,-0.55 0.45,-1 1,-1 0.55,0 1,0.45 1,1 0,0.55 -0.45,1 -1,1 -0.55,0 -1,-0.45 -1,-1 z m 0.74049,-29.17503 c -2.13853,-2.40018 -2.50478,-3.40406 -1.62755,-4.46105 0.84219,-1.01478 0.84238,-1.71282 7.6e-4,-2.72692 -0.91679,-1.10466 -0.64608,-1.27026 1.4283,-0.87372 2.3752,0.45405 2.51127,0.28218 1.88978,-2.387 -0.78209,-3.35889 -3.15722,-7.41235 -5.25813,-8.97364 -0.91597,-0.6807 -1.0906,-1.33593 -0.45992,-1.72571 0.55919,-0.3456 3.04528,0.71531 5.52465,2.35758 5.91614,3.91868 15.46882,7.24827 16.41291,5.72071 0.44618,-0.72195 0.94969,-0.4325 1.41108,0.81116 0.64884,1.74891 0.82104,1.67093 1.80275,-0.81638 1.44967,-3.673 1.81677,-3.46516 1.32467,0.75 -0.28886,2.47434 -0.0102,3.50932 0.9508,3.5318 2.09855,0.0491 -2.18587,2.9682 -4.35647,2.9682 -1.03309,0 -2.24637,1.0856 -2.77902,2.4866 -0.85416,2.24661 -1.2137,2.38136 -3.72525,1.39625 -3.68265,-1.44444 -11.27985,-1.97049 -11.27985,-0.78104 0,0.51759 1.12148,1.45205 2.49218,2.07658 1.934,0.88119 2.24254,1.43633 1.37756,2.47856 -1.54074,1.85648 -1.9839,1.69819 -5.12925,-1.83198 z M 487.58403,313.47833 c -5.65896,-0.32082 -6.12176,-0.50699 -4.72717,-1.90158 1.30154,-1.30154 2.29468,-1.36633 6.28182,-0.40983 4.84339,1.16191 9.32465,3.21171 6.21846,2.84442 -0.825,-0.0976 -4.3229,-0.33741 -7.77311,-0.53301 z m -9.22689,-4.259 c 0,-1.25292 1.06124,-1.25292 3,0 1.21296,0.78387 1.06944,0.97231 -0.75,0.98469 -1.2375,0.008 -2.25,-0.43469 -2.25,-0.98469 z m -194,-23.62252 c -4.125,-0.79312 -9.40085,-1.55085 -11.72411,-1.68386 -5.69505,-0.32605 -7.12911,-1.86142 -4.43729,-4.75075 1.86033,-1.99683 2.75563,-2.16899 8.76929,-1.68627 4.59538,0.36887 6.97072,1.02593 7.56815,2.09349 0.55381,0.98959 3.01856,1.79889 6.77189,2.22353 4.44463,0.50285 6.41181,1.25492 7.97001,3.04701 l 2.06883,2.37937 -4.74338,-0.0903 c -2.60887,-0.0496 -8.11839,-0.73916 -12.24339,-1.53227 z" fill="#000000"/></g></g></svg>