<svg xmlns="http://www.w3.org/2000/svg" xmlns:xlink="http://www.w3.org/1999/xlink" version="1.1" x="0px" y="0px" viewBox="0 0 100 100" enable-background="new 0 0 100 100" xml:space="preserve"><g><polygon points="43.695,77.855 43.633,77.793 43.602,77.52 43.508,77.434 43.438,77.221 43.367,77.158 43.32,77.191 43.32,77.158    43.375,77.025 43.375,76.877 43.188,76.668 43.093,76.668 42.976,76.557 42.922,76.557 42.827,76.465 42.616,76.535 42.616,76.674    42.476,76.674 42.21,76.971 42.21,77.072 42.163,77.121 42.03,77.105 41.882,77.246 41.468,77.246 41.318,77.098 41.154,77.098    41.193,77.379 41.147,77.426 41.147,77.598 41.421,77.887 41.421,77.996 41.476,78.145 41.569,78.223 41.569,78.793 41.507,78.848    41.521,79.199 41.647,79.199 41.679,79.395 41.515,79.504 41.562,79.785 41.491,79.855 41.459,80.443 41.577,80.551 41.577,80.631    41.725,80.785 41.725,80.904 41.874,81.021 42.351,81.021 42.351,80.871 42.461,80.764 42.476,80.473 42.616,80.332 42.765,80.332    42.906,80.506 43.288,80.639 43.516,78.762 43.422,78.598 43.422,78.348 43.546,78.262 43.641,78.035 43.727,77.957 43.695,77.855     "></polygon><polygon points="51.778,82.006 51.778,81.943 51.676,81.975 51.605,81.975 51.551,82.029 51.418,82.053 51.348,82.037    51.262,82.123 51.262,82.217 50.691,82.154 50.433,82.428 49.479,82.459 49.315,82.592 49.097,82.592 48.964,82.459 48.854,82.459    48.573,82.264 48.479,82.264 48.409,82.334 48.213,82.334 48.213,82.412 48.096,82.529 47.924,82.529 47.76,82.381 47.564,82.381    47.424,82.506 47.424,83.021 47.321,83.115 47.542,83.318 48.057,83.318 48.15,83.404 48.424,83.521 48.589,83.521 48.76,83.803    48.964,83.803 49.479,84.1 50.011,84.1 50.206,84.17 50.206,84.328 50.785,84.734 51.332,84.779 51.395,84.688 51.34,84.436    51.66,84.076 51.551,83.975 51.551,83.92 51.465,83.865 51.535,83.795 51.402,83.662 51.309,83.662 51.309,83.584 51.255,83.467    51.255,83.318 51.371,83.154 51.371,83.053 51.441,82.904 51.457,82.74 51.738,82.232 51.707,82.139 51.793,82.061 51.778,82.006     "></polygon><polygon points="42.992,73.541 42.922,73.736 42.867,73.736 42.78,73.625 42.664,73.641 42.461,73.828 42.249,73.828    42.179,73.898 42.101,73.898 41.999,73.939 41.96,74.26 41.843,74.4 41.968,74.525 41.85,74.643 41.913,74.807 42.141,75.018    41.913,75.111 42.085,75.26 42.085,75.377 41.96,75.494 42.008,75.611 42.241,75.611 42.257,75.689 42.187,75.76 42.187,75.846    42.406,76.025 42.539,76.025 42.569,76.088 42.632,76.143 42.749,76.182 43.015,75.932 43.077,75.119 43.272,74.955 43.258,73.979    43.188,73.877 43.164,73.172 43.031,73.047 42.984,73.102 42.992,73.541  "></polygon><polygon points="15.243,56.328 15.353,56.359 15.446,56.508 16.563,56.266 16.666,56.133 16.947,56.078 16.932,55.977    16.814,55.883 16.885,55.695 17.018,55.656 17.119,55.734 17.174,55.891 17.307,55.961 17.385,55.945 17.776,55.555 18.01,55.523    18.127,55.375 18.111,55.305 18.433,55.25 18.611,55.32 18.854,55.289 18.964,55.211 19.026,55.271 19.111,55.039 19.308,55.139    19.37,55.264 19.464,55.334 19.722,55.258 19.815,55.131 19.8,54.828 19.964,54.678 20.229,53.842 20.479,53.576 20.425,52.037    20.097,51.201 20.284,51.006 20.401,50.989 20.472,51.035 20.73,50.958 20.808,50.677 21.176,50.607 21.457,50.286 21.356,49.629    21.238,49.551 20.926,49.559 20.902,49.442 20.988,49.379 21.09,49.364 21.16,49.269 21.065,49.153 21.059,49.028 20.8,48.793    20.723,48.395 20.401,48.167 19.62,48.339 19.604,48.246 19.128,47.838 19.011,48.003 18.815,48.066 18.713,48.05 18.314,48.183    18.088,48.136 17.963,48.16 17.682,48.387 17.556,48.769 17.58,48.918 17.518,49.003 17.22,49.043 17.095,49.122 17.111,49.286    17.189,49.339 17.644,49.418 17.791,49.504 17.635,49.708 17.33,49.778 17.157,49.934 17.189,50.208 17.143,50.341 17.064,50.184    16.947,50.09 16.674,50.059 16.517,50.114 16.399,50.262 16.298,50.184 16.275,50.004 16.04,49.958 15.915,49.863 15.251,49.895    15.22,50.028 15.29,50.379 15.04,50.575 15.712,51.02 15.196,51.193 15.211,51.475 15.024,51.488 14.931,51.592 14.812,51.873    15.478,52.107 15.423,52.303 15.517,52.373 15.907,52.428 16.228,52.373 16.368,52.436 16.376,52.537 16.235,52.693 16.048,52.639    15.892,52.725 15.642,53.029 15.657,53.123 15.259,53.576 15.22,53.732 15.423,53.787 15.501,53.896 15.203,53.936 14.945,54.271    14.953,54.453 14.805,54.686 14.547,54.482 14.148,54.537 14,54.67 14.188,54.82 14.82,54.844 14.773,55.031 14.234,55.117    14.016,55.414 14.227,55.539 14.297,55.68 14.352,55.609 14.867,55.539 14.938,55.586 14.734,55.766 14.524,55.797 14.344,56.047    14.517,56.094 14.938,56.031 15.063,55.875 15.181,55.852 15.196,55.922 15.078,56.078 14.931,56.133 14.758,56.359 14.875,56.453    15.243,56.328  "></polygon><polygon points="21.105,44.674 21.027,44.767 21.16,44.861 21.191,45.002 21.051,45.002 20.933,44.916 20.785,45.095 20.8,45.22    20.878,45.331 20.895,45.463 20.848,45.596 20.723,45.689 20.683,45.745 20.808,45.792 21.48,45.706 21.464,45.322 21.59,45.306    21.918,44.916 21.957,45.416 21.785,45.51 21.527,46.049 21.543,46.206 21.457,46.338 21.473,46.706 21.512,46.799 21.512,47.057    21.348,47.355 21.331,47.51 21.152,47.863 21.129,48.058 21.395,48.042 21.496,47.909 21.527,47.738 21.512,47.605 21.598,47.44    21.574,47.276 21.777,47.003 21.762,46.877 21.652,46.667 21.762,46.526 21.888,46.604 21.918,46.729 22.013,46.799 22.027,46.885    22.153,47.027 22.488,46.315 22.474,46.463 22.504,46.557 22.716,46.706 22.552,46.729 22.411,46.917 22.379,47.089 22.395,47.206    22.629,47.558 22.653,47.699 22.637,47.808 22.59,47.871 22.481,47.941 21.95,48.941 21.973,49.317 22.191,49.269 22.223,49.23    22.441,49.239 22.849,49.575 22.981,49.575 22.957,49.434 22.919,49.402 22.895,49.199 23.302,49.387 23.38,49.497 23.481,49.481    23.747,49.301 23.842,49.286 23.989,49.207 24.037,49.043 24.178,48.996 24.333,49.035 24.396,49.144 24.2,49.426 24.209,49.52    24.146,49.661 23.904,49.887 23.919,50.036 24.107,50.247 24.192,50.692 24.357,50.825 24.467,51.027 24.568,51.014 24.646,50.88    24.771,50.903 25.037,51.09 24.911,51.256 24.904,51.355 24.803,51.412 24.67,51.576 24.615,51.754 24.74,51.959 24.709,52.006    24.678,52.162 24.521,52.42 24.67,52.686 24.826,52.803 24.74,52.818 24.458,52.725 24.513,52.951 24.436,52.975 24.287,52.857    23.106,53.045 22.802,53.342 22.762,53.475 22.208,53.982 22.341,54.021 22.622,53.93 22.724,53.803 22.911,53.771 23.027,53.85    23.099,54.992 22.95,55.188 22.599,55.334 22.504,55.461 22.301,55.484 21.855,55.781 21.473,55.836 21.371,55.961 21.395,56.094    21.496,56.172 21.512,56.281 21.434,56.391 21.441,56.461 21.527,56.523 21.457,56.625 21.793,56.664 22.105,56.586 22.168,56.5    22.355,56.477 22.45,56.359 22.528,56.414 22.708,56.656 22.88,56.633 22.895,56.742 22.677,56.75 22.599,56.859 22.724,56.953    22.957,56.93 23.083,56.766 23.255,56.742 23.396,56.852 23.403,56.961 23.466,57.008 23.481,57.109 23.716,57.289 23.967,57.377    24.287,57.328 24.333,57.266 24.342,57.133 24.436,57.008 24.701,56.969 25.029,56.805 25.123,56.688 25.389,56.523 24.443,57.625    24.42,57.727 24.38,57.775 23.95,57.828 23.755,57.643 23.639,57.664 23.45,57.633 22.824,57.719 22.646,58.125 22.481,58.211    22.355,58.117 22.199,58.375 22.223,58.564 21.747,59.096 21.59,59.109 21.098,59.736 20.745,59.963 20.574,59.986 20.395,60.072    20.347,60.283 20.636,60.268 20.723,60.15 20.863,60.127 21.035,60.229 21.059,60.416 21.003,60.432 21.113,60.518 21.23,60.502    21.316,60.33 21.301,60.229 21.566,59.986 21.73,59.963 21.723,59.877 21.801,59.76 22.629,59.619 22.699,59.502 22.81,59.604    22.856,59.768 22.927,59.76 23.005,59.893 23.208,60.057 23.388,60.08 23.38,59.971 23.552,59.854 23.661,59.705 23.685,59.58    23.669,59.486 23.724,59.205 24.278,58.924 24.873,58.971 25.146,59.166 26.062,59.096 26.006,58.914 26.819,58.775 26.803,58.674    26.873,58.586 27.46,58.729 27.585,58.822 29.625,58.736 30.016,58.477 30.173,58.486 30.25,58.383 30.235,58.266 30.524,58.104    30.736,58.055 30.923,57.93 30.884,57.672 30.932,57.414 30.829,57.344 30.524,57.336 30.478,57.398 29.734,57.312 29.625,57.242    29.579,57.164 29.609,57.125 30.142,56.992 30.212,56.898 30.228,56.734 30.125,56.656 29.914,56.609 30.016,56.602 30.117,56.461    30.274,56.445 30.391,56.477 30.446,56.406 30.648,56.375 30.712,56.227 30.586,56.195 30.423,56.07 30.821,55.961 31.087,55.719    31.337,54.836 31.274,54.641 31.313,54.404 30.962,54.029 29.914,53.725 29.539,53.834 29.446,54.062 29.336,54.17 29.133,54.162    29.11,54.107 29.11,53.975 29.008,53.797 29,53.701 29.313,53.49 29.141,52.771 28.984,52.576 28.766,52.436 28.57,51.035    28.273,50.77 28.141,50.52 28.124,50.403 28.148,50.293 27.82,50.043 27.219,49.863 27.124,49.793 26.89,48.808 26.733,48.691    26.632,48.262 26.678,48.027 26.632,47.776 25.42,46.643 24.826,46.776 24.396,46.706 24.45,46.636 24.709,46.588 24.732,46.424    25.029,46.238 25.217,46.213 25.31,46.104 25.389,45.854 24.756,45.784 25.265,45.51 25.397,45.494 25.873,44.845 25.904,44.612    26.084,44.369 26.226,43.751 26.437,43.423 26.468,43.297 26.569,43.172 26.139,42.68 25.999,42.711 25.835,42.805 25.17,42.766    25.029,42.821 24.467,42.743 24.162,42.875 24.067,42.977 23.834,43.032 23.755,42.969 23.81,42.758 23.802,42.704 23.967,42.477    23.513,42.266 23.614,42.282 24.052,41.899 24.247,41.843 24.865,41.203 24.959,40.984 24.904,40.851 24.998,40.656 24.904,40.523    23.396,40.82 23.239,40.679 23.005,40.718 22.919,40.656 22.778,40.616 22.661,40.531 22.606,40.616 22.504,41.109 22.426,41.25    22.278,41.297 22.168,41.64 22.021,41.851 22.317,42.109 22.113,42.196 21.793,42.219 21.723,42.171 21.527,42.242 21.574,42.57    21.496,42.672 21.613,42.836 21.582,42.946 21.48,43.032 21.434,43.219 21.543,43.36 21.566,43.455 21.48,43.625 21.582,43.962    21.387,44.189 21.401,44.564 21.301,44.682 21.105,44.674  "></polygon><polygon points="67.864,86.703 67.63,86.914 67.52,86.781 67.544,86.633 66.137,86.469 65.902,86.648 65.019,86.695 64.776,86.398    64.348,86.469 64.175,86.258 64.144,86.477 63.948,86.484 63.894,86.984 65.777,87.203 66.106,87.609 66.41,87.383 67.091,87.359    67.396,87.125 68.153,87.125 68.435,86.898 68.451,86.766 67.864,86.703  "></polygon><path fill-rule="evenodd" clip-rule="evenodd" d="M67.419,76.473h-0.055l0.218-0.041L67.419,76.473L67.419,76.473z M65.832,76.213   l0.453,0.195L65.832,76.213L65.832,76.213z M62.799,76.502v-0.1l0.008,0.232L62.799,76.502L62.799,76.502z M61.729,76.674   l0.344,0.07L61.729,76.674L61.729,76.674z M41.976,51.061l0.298,0.029L41.976,51.061L41.976,51.061z M67.833,44.314l-0.57-0.344   L67.833,44.314L67.833,44.314z M52.974,66.215l-0.078-0.078v-0.102v0.102L52.974,66.215L52.974,66.215z M54.31,64.496l-0.094,0.109   L54.31,64.496L54.31,64.496z M58.359,67.459h-0.117l0.25-0.008L58.359,67.459L58.359,67.459z M88.491,61.104l-0.351-0.062   l-0.892-0.562l-0.266,0.109l-0.812-0.406l-0.634,0.125l-1.008-0.961l-0.149,0.125l-1.25,0.188l-0.306-0.109l-0.241-0.203   l-0.109-0.023l-0.328,0.094l-0.368-0.174l-0.093-0.146l-0.04-0.486l-0.219-0.531l-0.336-0.25l-1.024-0.109l-0.055-0.188   l0.008-0.141l-0.109-0.109l-0.094-0.336l0.219-0.227l0.047-0.172l-0.375-0.438l-0.094-0.242l-0.25-0.234l-1.133-0.07l-0.313,0.227   H77.65l-0.055-0.062l-0.297-0.094l-0.297,0.422l-0.446,0.117l-0.218-0.086h-0.212l0.062-0.172v-0.195l-0.171-0.359l-0.103-0.711   l-0.273-0.432l0.133-0.281l1.212,0.039l0.266-0.102l0.273-0.273v-0.156l-0.383-0.648l-0.251-0.133l-0.539-0.023l-0.055-0.141   l0.11-0.25l-0.017-0.219h-0.195l-0.382-0.18l-0.446-0.648l-0.047-0.25l-0.376-0.336l-0.07-0.384l0.266-0.391l-0.249-0.258   l-0.008-0.548l-0.289-0.367l-0.398-0.258l-0.899,0.016l-0.156,0.141l-0.431,0.062l-0.062-0.062l-0.062-0.422l-0.07-0.109   l-0.75,0.102l-0.188-0.188h-0.398l-0.274-0.188l0.016-0.539l-0.054-0.157l-0.103-0.101l-0.062-0.173l-0.266-0.273l-0.03-0.195   l-0.062-0.055l-0.195,0.015v-0.124l0.155-0.164l0.031-0.743l-0.492-0.5l-0.539-0.023l0.539,0.023l0.008-0.391l0.36-0.352   l0.03-0.282l-0.32-0.32l0.078-1.047l-0.117-0.242v-0.195l0.117-0.172h0.094l0.164-0.125l0.07-0.165l0.125-0.124l-0.062-0.204   l0.273-0.233h0.258l-0.046-0.228l-0.212-0.219l-0.07,0.07l-0.32,0.141l-0.969-0.023l-0.415-0.188l-0.445-0.023l-0.109-0.055   l-0.813-0.078l-0.18,0.07h-0.195l-0.14-0.094l-0.18,0.242h-0.884l-0.126,0.125h-0.5l-0.219,0.078l-0.093,0.181l-0.939,0.351   l-0.085,0.087v0.266l0.147,0.148l-0.101,0.093l0.038,0.845l0.22,0.36l0.203,0.07h0.242l0.109,0.108L65.284,43l0.228,0.266v0.157   l-0.242,0.352v0.242l0.125,0.031h-0.157l-0.023,0.516l0.141,0.243l-0.015,0.375l-0.259,0.328l-0.688,0.391l-0.515-0.055   l-1.47-1.556l-0.062,0.062h-0.18l-0.196,0.094l-0.202,0.023l-0.141,0.142l-0.328,0.046l-0.478,0.681v0.344l-0.117,0.242   l-0.445,0.422l-0.11,0.344l0.235,1.938l0.086,0.087l0.077,0.312l-0.046,0.148l0.07,0.078l0.016,0.218l-0.227,0.032l-0.195,0.18   l0.008,0.336l-0.047,0.133l-0.273,0.126l-0.954,0.022l-0.039,0.133l0.156,0.469l-0.234,0.086h-0.203l-0.484,0.486l-1.11-0.057   l-0.227-0.092l-0.211-0.203l-0.117-0.258v-0.157l-0.126-0.156l-1.062-0.015l-2.228,0.938l-0.109,0.102h-0.188l-0.094,0.102   l-1.172,0.25l-0.103,0.094l-0.509,0.203l-0.101,0.102h-0.195l-0.32,0.328H50.09l-0.125-0.133l-0.118-0.25l-0.218-0.219h-0.54   l-0.188-0.18h-0.359l-0.438-0.438l-0.617,0.102l-0.36,0.43l-0.147-0.055l-0.188,0.047l-0.108,0.102l-0.204-0.133l-0.219,0.203   l0.023,0.016l-0.055,0.094l-0.266,0.188h-0.148l-0.188,0.086h-0.211L45.321,52.6v0.125h-0.164v0.172h-0.118l-0.101-0.094   l-0.29,0.008l-0.141,0.125l-0.155-0.172l0.296-0.266l0.048-0.133v-0.133l-0.078-0.18l-0.173,0.156l-0.234,0.008l-0.116-0.102   l-0.282-0.117h-0.141l-0.055,0.039l-0.078-0.133h-0.312l-0.087-0.5l-0.047-0.041l-0.046-0.092l-0.008-0.088l-0.017-0.016l0.009-0.1   l0.023-0.023l0.101-0.01v0.033l-0.047,0.029l0.031,0.025l-0.007,0.07l0.109,0.016l0.016,0.039l0.022,0.023l0.032-0.041   l-0.016-0.047l-0.024-0.023l-0.007-0.037l0.015-0.008l0.024,0.023l0.031-0.041l0.007-0.047l0.032,0.033l0.008,0.031h0.101   l0.024-0.025h0.016l0.022,0.018h-0.038l-0.032,0.031l0.04,0.029h0.016l0.023,0.025l0.047-0.01l0.016-0.016h0.023l0.094-0.029   l0.007-0.016l-0.046-0.172l-0.336-0.259l-0.188-0.015l-0.039,0.046l0.022,0.024h0.04l-0.056,0.03l0.203,0.095l0.017,0.039   l0.039,0.016l0.07,0.062l-0.047,0.031l-0.062-0.069l-0.047-0.016v0.054l-0.032-0.007v-0.07l-0.03-0.017l-0.008-0.022l-0.055,0.008   l-0.032-0.031h-0.03l-0.062-0.056l0.015-0.016l-0.055-0.03L43,50.778h-0.062l-0.048,0.016h-0.062l0.062-0.054l0.048-0.008   l0.015-0.009l0.017-0.023l-0.017-0.047v-0.055l-0.03-0.039h-0.04v-0.008l0.048-0.007l0.03-0.032l-0.054-0.008l0.116-0.102   l0.079,0.023l0.07-0.07l0.023-0.055l0.015-0.008l-0.015-0.039v-0.031l-0.048-0.039h-0.046l-0.024-0.023l0.04-0.047l-0.016-0.016   L43.062,49.8h0.039l0.031-0.03v-0.055l-0.04-0.039l-0.016,0.016h-0.155v-0.039l0.07-0.023v-0.024l0.039-0.015l0.086,0.039   l0.03-0.032l0.087,0.095l0.038,0.008l0.078,0.086h-0.038l-0.04-0.031l-0.046-0.008v0.016l0.07,0.062h0.046l0.008,0.008   l-0.022,0.023l0.022,0.007l0.024,0.024v0.023l-0.047,0.031l0.07,0.062l0.077,0.023v0.086l0.024,0.039l-0.008,0.023l0.023,0.07   l-0.008,0.023l0.038,0.039l0.079,0.016v0.109l0.023,0.048v0.069l0.039-0.007v-0.07l-0.023-0.024l-0.023-0.062l0.023-0.023   l0.047,0.031l0.047,0.008l0.047-0.016l0.016,0.016v0.039l0.039,0.04l0.008,0.069l-0.023,0.023l-0.047,0.008l-0.039,0.032   l0.016,0.007l0.133,0.016l0.008,0.032h0.039l-0.008-0.024l0.008-0.038l0.023-0.024l0.062,0.055l0.023,0.008h0.039l0.056,0.047h0.07   l0.03,0.024h0.055l0.055,0.023h0.078l0.07-0.062l0.188-0.008l0.04-0.055v-0.048l0.047-0.125v-0.266l-0.024-0.062l0.016-0.016h0.048   l-0.063-0.172l-0.133-0.148l-0.022-0.086l0.016-0.024l0.046-0.007l0.009-0.023l-0.086-0.078v-0.062l-0.087-0.148L44.5,49.364v0.062   l-0.023,0.016l0.031,0.022v0.079l-0.039-0.009l-0.023,0.024l0.055,0.046l-0.015,0.017l0.008,0.039l-0.07,0.007l-0.032,0.024   L44.36,49.7l-0.024,0.055h-0.055l-0.039-0.039v-0.048l0.062-0.015l0.039-0.039H44.32l0.008-0.023l-0.008-0.031l0.062-0.032h-0.047   l-0.039-0.03h-0.039l-0.023-0.032L44.22,49.41l-0.032-0.022h-0.055l-0.086-0.056l-0.008,0.017v0.054h-0.031v-0.03l-0.046-0.008   l-0.423,0.203l-0.016,0.038l-0.094-0.008l-0.047-0.07l-0.023,0.024l-0.087-0.024l0.008-0.055l0.024-0.038l0.108-0.062v-0.023   l-0.015-0.017l-0.07-0.015l-0.094,0.008l-0.031-0.063l-0.126-0.093H43l-0.016-0.04h0.124l0.242,0.086l0.258-0.086l-0.007-0.038   l0.07-0.047l0.007-0.016l-0.054-0.024l0.039-0.085v-0.032l-0.008-0.023l-0.11-0.007l-0.07-0.032h-0.038v-0.038l0.195,0.015   l0.016-0.022H43.57l-0.008-0.024l0.031-0.03h0.156l0.039,0.022l0.008,0.032l0.023,0.03l0.054,0.016V48.8l0.024-0.022l-0.047-0.048   l0.078-0.069l0.032-0.078V48.52l-0.024-0.071l0.031-0.078v-0.023l-0.062,0.008l0.07-0.062l-0.07-0.211l0.031-0.117l0.117-0.156   l0.031-0.095l0.047-0.008l0.102,0.032v0.038l-0.039,0.056l0.008,0.062l-0.046,0.008l-0.009-0.023l-0.062,0.023l-0.008,0.086   l0.047,0.062h0.023l0.016-0.031l0.023-0.023l0.125,0.008l0.016-0.016l0.024-0.062l0.038-0.039l0.103-0.008l0.022,0.016   l-0.022,0.023v0.031l-0.024,0.022l0.07,0.07h0.039l0.017-0.007l0.016-0.039l-0.009-0.062l0.017-0.087l0.147-0.233l0.048-0.032   l-0.008-0.147l0.101-0.118l-0.147-0.109l-0.024-0.054l-0.046-0.024l-0.024-0.022l-0.249,0.031l-0.04,0.038l-0.125,0.008   l-0.164-0.077h-0.031l-0.03-0.056V47.01L44,46.995l-0.038,0.04l-0.056,0.022l-0.023,0.023l0.008,0.024l-0.023,0.109l-0.023-0.071   l0.016-0.094l0.156-0.164l-0.008-0.046l-0.117-0.087l-0.031,0.009l-0.047-0.017l0.117-0.008l0.023,0.016L44,46.699l-0.016-0.07   l-0.047-0.032l-0.016-0.055l-0.031-0.038l0.031-0.478l0.062-0.023l0.156-0.461l0.094-0.07l-0.023-0.517l0.031-0.055l-0.172-0.155   l-0.016-0.173l0.031-0.141l0.086-0.086l0.048-0.017l0.093-0.101l-0.016-0.032l-0.148,0.048l-0.242,0.242l-0.086,0.039l-0.031,0.039   l-0.367,0.039l-0.548,0.891l-0.195,0.142l-0.289,0.078l-0.242-0.055l-0.172,0.062l-0.031,0.047l-0.273,0.031l-0.07-0.023   l-0.086,0.07l-0.031,0.046l-0.008,0.04l-0.398,0.602l-0.009,0.165l0.04,0.046h0.015l-0.015-0.148l0.085,0.07v0.117l0.188,0.125   l0.015,0.031l0.048,0.039l0.031,0.078l0.054-0.016l0.032-0.022l0.008-0.071l-0.023-0.023l-0.017-0.047v-0.046h-0.015l-0.056,0.03   l-0.015-0.008l0.047-0.047l-0.047-0.038l-0.008-0.11l-0.016-0.03l0.016-0.024v-0.055l0.022-0.023l0.024-0.008l0.016-0.039   l0.03-0.031l0.048-0.023l0.023-0.031v-0.022l0.023-0.048l-0.032-0.023l0.087-0.117l0.125-0.008l0.062-0.087v-0.038l0.039,0.031   l0.031-0.031v-0.047l0.039,0.023l0.016,0.031h0.039l0.031-0.031l0.142-0.009l0.077-0.062l-0.023-0.038l-0.062-0.055l-0.016-0.078   l0.031,0.055l0.07,0.046l0.039,0.056l0.039,0.015l0.008,0.04l0.086,0.062l0.047,0.016l0.032-0.056l0.171-0.069h0.024l0.054-0.031   l0.062-0.008v0.039l0.095-0.031l0.015-0.024h0.133l0.125-0.054l0.024-0.023h0.031l0.047,0.016l0.094,0.07h-0.031l-0.047,0.016   l-0.031,0.023h-0.204l-0.038,0.039l-0.016,0.07L43,46.065l-0.024,0.022l-0.007,0.032l-0.039,0.03l0.008,0.048L42.89,46.15v-0.022   l0.032-0.031v-0.039l-0.148-0.031l-0.234,0.039l-0.063,0.085l-0.007,0.024l-0.07,0.055l-0.024,0.094l0.07,0.062v0.048l-0.038,0.022   v0.078l0.015,0.047h0.016l0.047,0.039l0.008,0.031l-0.008,0.048l-0.077,0.085l-0.017,0.04v0.038l0.039-0.047l0.055-0.031h0.078   l0.016,0.016l0.008,0.148l-0.039,0.079v0.046l0.056,0.024h0.07v0.039h-0.04l-0.055,0.023h-0.023l-0.022-0.017l-0.017-0.023v-0.085   l0.024-0.062l-0.032-0.032l-0.016,0.008l-0.03,0.031l-0.103,0.008l-0.07,0.07L42.28,47.12h-0.039v-0.055l-0.038-0.023l0.046-0.069   l-0.008-0.024l0.055-0.046l0.023-0.048v-0.055l0.031-0.03l-0.039-0.149l-0.023-0.023l-0.008-0.03l-0.039-0.04l-0.078,0.023   l-0.078-0.023l-0.133,0.156l-0.023,0.055l0.07,0.016l0.023,0.023l-0.156,0.048l-0.07,0.133l-0.062,0.022H41.71l0.015,0.102   l0.024,0.039l0.031,0.023l0.016,0.126L41.757,47.3l-0.141-0.031l0.055,0.023h-0.039l-0.04-0.032v-0.055l-0.038-0.038l-0.008-0.024   l0.008-0.038h-0.032l-0.022,0.031h-0.04l-0.133-0.056h-0.125l-0.016,0.031h-0.022l-0.009-0.055l-0.077-0.062l0.016-0.016   l-0.055-0.015l-0.008-0.04l0.016-0.016l-0.008-0.109l-0.07,0.109l-0.009,0.102l-0.039,0.07l-0.007,0.415l0.03,0.015v-0.055   l0.024-0.03l0.093,0.07l-0.062,0.008l-0.022,0.023l0.188,0.164l0.008,0.015l-0.062,0.063l-0.008-0.023v-0.04l-0.079,0.008   l-0.031-0.03l-0.062-0.032l-0.008,0.807l0.039,0.03l0.017-0.023l-0.04-0.25l0.219,0.125l0.047,0.062l0.009,0.102l0.023,0.047   l0.055,0.047l0.008,0.056l-0.016,0.046l-0.142,0.149l-0.07,0.038h-0.03l0.008-0.07l-0.031-0.022l-0.031-0.235l0.015,0.665   l-0.015,0.054l-0.063,0.071l0.008,0.141l-0.055,0.055l0.047,0.039h0.063l0.218,0.188l0.024-0.031l-0.04-0.078l-0.125-0.102   l0.056-0.062l0.102-0.008l-0.024,0.023l0.032,0.039v0.054l0.258,0.181h0.023l0.055,0.047h0.055l0.047,0.086l0.031,0.375   l0.047,0.109l-0.055,0.478l0.055,0.047v0.358l0.179,0.166l0.088,0.188l0.069,0.07v0.172l-0.125,0.133h-0.165l-0.108,0.234h0.195   v0.266l0.109,0.086h0.148l-0.062,0.195h-0.103v0.102l0.07,0.117l0.148,0.109h-0.328l-0.062-0.055l-0.172-0.023v0.078l-0.141,0.102   l0.046,0.727l-0.147-0.281l-0.118-0.109h-0.109v0.299l0.079,0.076l-0.125,0.016l-0.165-0.148l0.016-0.195l-0.054-0.18l-0.062-0.055   l-0.938,0.078l-0.148,0.133v0.125l-0.109,0.102l0.054,0.195l0.07,0.07h0.11l0.102,0.094l-0.164,0.07l-0.094-0.07l-0.055,0.008   l-0.016-0.023l-0.047-0.008L39.592,54.1l-0.017-0.016l-0.008-0.021l-0.163-0.057v-0.008l-0.04-0.023v-0.023l-0.038-0.117   l0.023-0.031l-0.062-0.031l-0.008-0.016h-0.048l-0.038-0.016l-0.117,0.016l-0.055,0.031l-0.273,0.031l-0.087,0.041l-0.016,0.029   l-0.039-0.029l-0.016-0.025h-0.078v0.031h0.008l-0.008,0.008h-0.016l-0.007,0.008l-0.009,0.016l0.016,0.008h0.031l0.016,0.016   l-0.023,0.023l0.008-0.014v-0.01h-0.055l-0.008-0.016v-0.039l0.024-0.016h-0.243l-0.477,0.164l-0.258,0.195l-0.04,0.148   l-0.031,0.047l0.017,0.031v0.018h-0.023v0.014l0.023,0.064l0.015,0.014l-0.007,0.023l0.015,0.088l-0.022,0.07l0.015,0.031   l-0.047,0.006l-0.038,0.033l0.07,0.062l0.047,0.006l0.016-0.006h0.022l0.07,0.037h0.056l0.015-0.016l0.079-0.021l0.016,0.014v0.018   h0.047l0.023,0.016h-0.04l-0.03,0.016L37.7,55.031l-0.017,0.18l0.009,0.031l0.062,0.078l0.211,0.014l0.125-0.037h0.031l0.031-0.016   l0.016-0.023h0.047l0.016,0.023l-0.234,0.062l-0.016,0.053l0.022,0.041l0.008,0.117l-0.07,0.125l-0.077,0.039l-0.039,0.047   l-0.039,0.023l-0.07,0.016l-0.095,0.062l-0.008,0.023v0.023l-0.054,0.062l-0.039,0.016h-0.04l-0.046,0.016h-0.031L37.396,56   l-0.023-0.008l-0.032-0.039h-0.038l-0.063-0.055h-0.125l-0.086-0.055h-0.062v-0.047l-0.078-0.016l-0.039-0.039l0.109-0.008   l0.086-0.109l-0.046-0.016l-0.008-0.023v-0.031l0.008-0.025l0.022-0.014v-0.031l-0.022-0.023v-0.078l-0.04-0.039l-0.008-0.055   l0.023-0.039l0.165,0.031l0.047-0.031h0.03l0.023-0.016v-0.033l0.024-0.021h0.03l0.032-0.049v-0.029l-0.07-0.062l-0.103,0.016   l-0.039,0.031l-0.016-0.018l-0.016-0.217l-0.055-0.104l0.016-0.037l-0.086-0.041l-0.109,0.088v0.016l0.017,0.047l-0.056-0.018   l-0.039-0.039h-0.023l-0.047-0.053l0.04-0.07l-0.079-0.016l-0.054,0.023l-0.22,0.875l0.086,0.039l-0.078-0.008l-0.031,0.023   l-0.25,0.477l-0.312,0.312v0.031l-0.047,0.039l0.07,0.086h0.03l0.095,0.07h-0.087l-0.054-0.055H35.77l-0.078-0.078h-0.047   l-0.023,0.016l0.008,0.18l0.038,0.039h0.024l0.093,0.07h0.032l0.108,0.102h0.056l0.039,0.039l0.188,0.078h0.117l0.102-0.086   l0.022,0.023h0.024l0.016,0.008h0.031l0.031-0.023l0.008,0.008l0.031-0.023h0.039v0.023l0.047,0.008v0.047l-0.023,0.016h-0.078   l-0.016-0.016h-0.047l-0.023,0.023h-0.055l-0.023-0.008l-0.062,0.008l-0.086,0.055h-0.047l-0.055-0.055l-0.219-0.031l-0.109-0.094   v-0.016l-0.023-0.008l-0.087-0.078h-0.046l-0.031-0.039h-0.023l-0.032-0.031l-0.022,0.016h-0.055l-0.016,0.016h-0.055l-0.04,0.031   v0.055h0.032l0.03-0.031l0.032,0.008l0.062-0.008l0.038,0.047v0.047l0.024,0.023l0.016,0.031l0.022,0.023h0.07l0.04,0.039h0.022   l0.07,0.055h0.134l0.047-0.039l0.015,0.023L36.02,57.07l-0.055,0.023l-0.016,0.016l-0.165-0.008l-0.022-0.023h-0.055v0.016   l0.039,0.039h0.031l0.015,0.016h0.024v0.047l-0.024-0.016l-0.015-0.023h-0.07l-0.024-0.023h-0.023l-0.03,0.016l-0.016,0.016   l-0.047-0.008l-0.023,0.023l0.062,0.062l0.016,0.039l0.038,0.031h0.087l0.031,0.031h0.047l0.023,0.008h0.039l0.038,0.031v0.055   l-0.03,0.023l-0.008,0.016l-0.18-0.008l-0.181-0.172h-0.055l-0.038-0.039H35.23l-0.048,0.031l-0.086-0.078l0.009-0.031l0.07,0.07   h0.022l0.023-0.016l0.157,0.008l0.047-0.039V57.18l-0.04-0.039l-0.234-0.008l-0.031,0.023h-0.055l-0.022-0.023h-0.048l-0.015,0.016   l-0.048,0.016l-0.055,0.047l-0.038,0.008l-0.009,0.031l0.031,0.031v0.023l0.118,0.125l0.108,0.008l0.047-0.039v0.039l0.062,0.072   h0.04l0.07,0.029l0.093-0.016l0.016-0.014l0.009-0.049l0.03-0.031l0.031,0.008l0.031-0.008l0.031,0.023l0.017,0.023h0.03   l0.055,0.047l0.157,0.008l0.039,0.041l-0.023,0.014l-0.016,0.039v-0.031H35.77l-0.016,0.016h-0.055l-0.017,0.016l-0.023-0.023   l-0.015-0.008h-0.031l-0.063-0.07l-0.078,0.008v0.062l-0.07,0.016l-0.03,0.023h-0.087l-0.023-0.023h-0.055l-0.03,0.023   l-0.103-0.086h-0.086l-0.055-0.055h-0.031l-0.07,0.031l-0.047-0.008l-0.109,0.062h-0.219l-0.078,0.07h-0.109L33.878,57.9   l-0.273,0.021l-0.095,0.102l-0.805,0.08l-0.203,0.107l-0.759,0.039l-0.413,0.344l-0.04,0.516l-0.117,0.127v0.328l0.18,0.18   l-0.508,0.508h-0.516l-0.375,0.211h-0.173l-0.586,0.414v0.172l0.102,0.102h0.204v0.172h-0.243L29.11,61.48l-1.705,0.014   l-0.195-0.188l-0.187-0.43h-0.892l0.062,0.445l0.21,0.211v0.486l0.228,0.217v0.328l0.141,0.15l-0.141,0.148l-1.056,0.016   l-0.156-0.156l-0.218,0.086l-0.158,0.156l-0.64-0.57H24.17l-0.228,0.227l-0.156-0.156l-0.242,0.242l-1.203,0.039l-0.431,0.359   v0.258h0.431l-0.032,0.555h-0.171v0.172h0.241l0.274,0.172v0.211h0.891l0.312,0.305H24.2l0.173,0.312h0.93l0.141,0.383l0.375-0.039   l0.243,0.07l-0.273,0.283l0.03,0.344l0.586,0.828l0.688,0.203l0.188,0.195l-0.219,0.398l0.234,0.758l0.5,0.5l0.017,0.5   l-0.173-0.172l-0.133-0.383l-0.155-0.156h-0.228l-0.203,2.65l-0.141,0.133L26.819,72l-0.594,0.789h-1.032l-0.164-0.162   l-0.243-0.096h-0.179l-0.234,0.195l-0.446-0.047l-0.211-0.211L18.4,72.367l-0.57-0.398L17.127,72l-0.258,0.141v0.416l-0.157,0.1   l-1.086,0.195l-0.391,0.445V73.4l0.203,0.24l0.273,0.158l0.07,0.141l0.031,1.57l-0.102,0.102l0.055,0.156v0.172l0.118,0.33v0.35   l0.093,0.094l0.078,0.525l-0.126,0.133l0.009,0.383l-0.102,0.297v0.383l-0.25,0.25l-0.031,0.523L15.36,79.41l-0.062,0.164   l-0.211,0.211l0.008,0.148l-0.102,0.102l-0.086,0.729l0.086,0.086v0.125l0.218,0.031l0.399-0.4v0.143l-0.312,0.414v0.211   l0.57,0.031l0.055-0.055l-0.109,0.107l0.109,0.104l-0.109,0.242l-0.031,1.07l0.086,0.242v0.188l-0.267,0.266l0.062,0.289   l0.063-0.07l0.656-0.07l0.415,0.141h0.547l0.07-0.07l0.367-0.188l0.047-0.141h0.845l0.414,0.414l0.312,0.088l0.102,0.1v0.383   l0.07,0.156l0.102,0.102l0.133,0.486l0.384,0.297l0.172,0.016l0.102,0.102h0.188l0.211-0.086l0.242-0.258V85.07l0.32-0.195   l0.602-0.016l0.228-0.312h0.086l0.085-0.086h0.759l0.171-0.072l0.774-0.045l0.103,0.1h0.398l0.258,0.086l0.258-0.258h0.102   l0.407,0.133l0.406-0.406l0.117-0.523l0.641-0.445h0.532l0.195-0.07V82.85l0.266-0.273l0.203-0.68l0.578-0.635h0.133l0.414-0.311   l-0.57-0.721l-0.047-0.141l0.101-0.898l1.135-1.398l0.445-0.252l-0.102-0.092v-0.281l0.203-0.109l0.141-0.15l0.711-0.258h0.203   l0.086-0.094h0.172l0.36-0.359h0.203l0.211-0.219l0.055-0.141l0.008-0.367l0.125-0.133v-0.172l0.086-0.086v-0.641l-0.063-0.031   l0.009-0.414l-0.031-0.102l0.102-0.432l0.305-0.303l0.188-0.096l0.258-0.016l0.797-0.5l0.181,0.016v0.094l0.04,0.055l0.007,0.049   l0.312-0.008l0.055,0.029l0.18,0.008l0.062,0.062l0.094,0.033l0.109,0.1h0.079l0.046-0.037l0.398-0.062l0.048-0.111l0.039-0.039   h0.046l0.173,0.109v0.041L36.05,72.93l-0.202,0.025v0.084l0.453,0.062l0.031,0.031v0.039l0.047,0.088l-0.016,0.031l0.085,0.037   h0.04l0.251,0.096h0.108l0.024,0.076l0.28,0.111l0.055-0.023l0.306,0.031l0.03,0.021l0.078-0.061l0.688-0.109l0.07-0.236   l0.11-0.133l0.351-0.209l0.04-0.07l0.047-0.041l0.069-0.008l0.055-0.055l0.173-0.078v-0.047l0.109-0.1l0.195-0.01l0.108-0.109   l0.267,0.016l0.07-0.07l0.719-0.234l0.133-0.297l0.415-0.305v-0.203l0.483-0.484h0.587l0.415,0.305h0.477l1,0.523l0.212,0.932   l0.304,0.381v0.385l0.383,0.373l0.062,0.174l2.861,2.383l0.352-0.008l0.266,0.266h0.673l1.086,1.072h0.43l0.774,1.023l0.415,0.211   h0.202l0.212,0.172v0.516l0.445,0.141v0.656l0.241,0.242l-0.202,0.205l-0.109,0.273h-0.242v0.352l-0.133,0.305l-0.298,0.297v0.227   l0.782,0.133l0.719-0.891v-0.422l0.273-0.273l0.657-0.242l-0.102-0.689l-0.774-0.781v-0.359l0.626-0.633h0.219l0.242,0.25   l0.649-0.07l0.288,0.297v0.297h0.61l0.102-0.383l-0.039-0.242l-2.321-1.447h-0.056l-1.375-0.625l0.172-0.352l0.258-0.258   l-0.219-0.289l-1.728-0.07l-0.305-0.312l-0.727-0.273l-0.36-0.367l-0.117-1.018l-0.798-1.07l-0.405-0.211h-0.181l-0.891-0.969   v-0.586l0.242-0.242v-0.344l-0.188-0.188l-0.124-0.328l-0.204-0.141l0.328-0.33l0.228,0.055l0.164-0.023l0.25-0.125h0.109   l-0.062-0.117l0.078-0.07l0.415-0.055l0.125,0.055l0.094-0.023l0.047,0.133h0.062l0.094,0.203l0.203,0.148l-0.039,0.109   l0.008,0.055l0.102,0.148l-0.008,0.258l0.539,0.76l0.148-0.117l0.023-0.086L49.965,70l0.062-0.109l0.046-0.041l0.172-0.391v-0.225   l0.133-0.055h0.055l0.251,0.125l0.07,0.109l0.328,0.248l0.039,0.111l0.055,0.062l0.07,0.617l0.492,0.641l0.016,0.25l0.32,0.281   l0.055,0.109l0.782,0.469l0.015,0.227l0.071,0.086l0.18,0.094l0.055-0.078l0.188-0.086l1.07,0.211l2.244,1.494l0.062,0.172   l1.227,1.273v0.406l-0.078,0.234v0.586l-0.148,0.398v0.768l1.001,0.883l0.062,0.195l0.109,0.109l0.117,0.375l0.454,0.391   l0.188-0.023l0.421,0.127l0.07,0.107l-0.038,0.117l-0.586-0.18l0.133,0.32l0.163,0.158l0.149,0.365l0.008,0.117l0.062,0.104   l0.108,0.086l0.087,0.021l0.102-0.053l0.016-0.055l0.148,0.188l0.172,0.031l0.117-0.07l0.211,0.039l0.109-0.055h0.094l0.031-0.025   l0.259-0.053l0.969,0.266l0.68,0.461l-0.016,0.07l-0.164,0.047l-0.156-0.047l-0.093,0.055l0.015,0.07l-0.031,0.07l-0.062,0.031   l-0.484-0.305l-0.039-0.062l-0.509-0.18l-0.133-0.133l-0.281-0.125l-0.25,0.078l-0.016,0.076l-0.102,0.025l-0.055,0.039   l-0.211-0.016l-0.133-0.078l-0.086,0.18l-0.07,0.039l-0.008,0.117l-0.07,0.086l-0.211,0.047l-0.039,0.133l0.32,0.266l0.016,0.094   l0.211,0.156l0.258,0.438l-0.055,0.188l-0.156,0.141l-0.031,0.117l0.008,0.109l0.07,0.125l0.078,0.07l0.008,0.078l-0.031,0.102   l0.031,0.078l-0.023,0.111l0.375,0.037l0.047-0.086l-0.031-0.172l0.016-0.102l0.07-0.062l0.11-0.047l0.102,0.033l0.046,0.053v0.102   l0.353,0.541l-0.087,0.248l0.07,0.119l0.125,0.062l0.04-0.164l-0.008-0.094l0.203-0.352l0.055-0.033l0.25,0.049l0.008,0.18   l0.094,0.123l0.062,0.01l0.062,0.092l0.016,0.078l0.109,0.062l0.07,0.119l0.056,0.031l0.077-0.07l-0.188-0.416l0.094-0.25   l-0.484-1.289l0.047-0.148l0.102,0.031l0.18,0.133l0.148,0.039l0.125,0.141l-0.038,0.125l0.038,0.086l0.195-0.086l0.062-0.055   l0.047-0.016l0.203,0.016l0.062-0.031l0.031-0.086l-0.164-0.164l-0.022-0.078l-0.07,0.039l-0.142-0.023l-0.062-0.062l-0.148-0.414   l-0.125-0.078l0.016-0.055l0.484-0.141l0.446,0.078l0.211,0.242l0.07,0.031l0.219,0.289l0.078,0.031l0.094-0.102l0.016-0.078   l-0.117-0.633l0.071-0.086l0.007-0.07l-0.07-0.125L64.19,81.74l-0.703-0.539L63.456,81.1l-0.063-0.086l-0.14-0.039l-0.04,0.021   l-0.133-0.037l-0.07-0.117l-0.602-0.244l-0.055-0.078l0.031-0.062l0.516,0.111l0.094-0.025l0.063-0.162l-0.095-0.158l-0.023-0.125   l-0.172-0.188l0.024-0.094l0.155-0.094l0.023-0.039l0.094,0.023l0.211,0.18l0.032,0.062l0.078,0.078l0.164,0.031l-0.024-0.102   l-1.102-1.664l0.195-0.195l0.023-0.25l0.086-0.094h0.086l0.203-0.15l0.228,0.518l0.141,0.141h0.133l0.125,0.188v0.102l0.25,0.305   l0.078-0.086v-0.195l-0.086-0.094v-0.102l0.07-0.062l0.422,0.43h0.172l0.094-0.102l-0.289-0.289l-0.062-0.18l0.117-0.117   l0.391,0.398l0.148-0.094v-0.156l-0.578-0.578l0.022-0.305l0.814,0.039l0.258-0.258h0.586l0.056-0.055h0.304l0.055-0.055   l0.312,0.234l0.219-0.072h0.399l0.148,0.117h0.296v0.133l0.259-0.287l0.141-0.586l0.22-0.111l0.14-0.219l-0.312-0.664l0.195-0.195   l0.859-0.297h0.173l0.109,0.109l0.853,0.094l0.108-0.109l-0.156-0.32l-0.266-0.266l-0.086-0.234l0.907-1.729l0.281,0.062   l0.133-0.078l0.25-1.766l0.289-0.299l0.039-0.17l-0.039-0.172l0.141-0.141v-0.236l0.172,0.018L72.21,70l0.711-0.055l0.188-0.221   l-0.055-0.295l0.157-0.158l0.03-0.1l-0.116-0.346v-0.367h0.116l0.438-0.273l0.227-0.047l0.423-0.539h0.125l0.296-0.578l0.22-0.221   l0.82-0.139l0.228,0.086h0.226l0.22-0.461l0.038-0.328l-0.288-0.322l0.062-0.234v0.172l0.358,0.297l0.04,0.705l0.085,0.141   l0.392-0.016l0.172-0.086h0.195l-0.258,0.328h-0.642l-0.085,0.086l-0.024,0.211l-0.133,0.133l2.689,0.398l0.094,0.195l-0.11,0.117   h-0.226l-1.306,0.859h0.188l1.086,0.539l0.116,0.15l-0.062,0.633l-0.195,0.203l0.29,0.117l0.125,0.172h0.516l0.758-0.547   l0.133-0.229l0.626-0.055l0.5-0.295l0.047-0.119l0.36,0.057l0.242,0.117H82.7l0.359-0.205h0.227l0.188-0.297v-0.203l-0.517-0.18   l-0.241,0.111l-0.626,0.014l-0.272,0.119l-0.259-0.064l-0.711-1.109v-0.234l0.266-0.133l0.25-0.312l0.524-0.094l0.422-0.445   l0.906-0.119l0.117-0.125l0.493,0.057l2.103-0.791l0.047-0.594l0.195-0.242l0.328-0.141l0.367-0.344l1.345-0.047l0.039-0.219   l0.148-0.172l-0.11-0.805l-0.14-0.117l-0.008-0.18l0.195-0.398l-0.11-0.297l0.259-0.18l0.109-0.252l0.008-0.305L88.491,61.104   L88.491,61.104z"></path><polygon points="36.949,35.981 37.333,36.192 37.505,36.192 37.263,36.271 36.872,36.271 36.637,36.607 39.607,36.528    39.959,36.646 40.123,36.81 39.92,37.021 39.662,37.021 39.49,37.161 39.294,36.966 37.388,36.888 36.77,37.489 36.895,37.615    37.122,37.615 37.122,37.725 37.403,37.842 37.23,38.005 37.333,38.108 37.488,38.186 37.263,38.421 37.051,38.421 36.652,38.554    36.652,38.772 36.832,38.952 36.949,38.842 37.355,38.842 37.591,39.085 37.903,38.991 38.396,38.475 38.63,38.475 38.889,38.631    38.778,38.733 38.653,38.733 38.561,38.639 38.317,38.89 38.317,39.092 37.927,39.203 37.528,39.601 37.7,39.764 37.879,39.843    38.207,39.843 38.06,39.992 37.888,39.992 37.441,40.445 37.23,40.445 36.794,40.648 36.872,40.726 36.872,40.906 37.309,40.906    37.646,40.781 37.591,40.571 38.185,40.546 38.419,40.312 38.513,40.406 38.263,40.648 38.185,40.89 38.317,41.023 38.146,41.023    38.004,41.171 37.927,41.507 38.185,41.547 38.295,41.437 38.458,41.437 38.114,41.789 37.802,41.789 37.543,41.532 37.45,41.804    37.285,41.969 37.285,42.204 37.724,42.649 37.879,42.954 38.295,42.954 38.295,43.141 38.686,43.329 38.833,43.181 39.092,43.181    39.146,43.266 38.856,43.58 39.427,43.58 39.553,43.712 40.561,43.712 40.693,43.58 40.928,43.532 41.03,43.43 41.374,43.43    41.671,43.133 41.796,43.133 42.085,42.836 42.28,42.836 42.452,42.672 42.656,42.211 42.938,41.93 43.125,41.93 43.312,41.743    43.312,41.515 43.445,41.39 43.608,41.555 43.741,41.555 43.922,41.375 44.078,41.375 44.157,41.171 44.539,40.781 44.336,40.571    44.336,40.367 44.556,40.257 44.556,39.834 44.766,39.616 44.892,39.742 44.892,40.022 44.759,40.155 44.759,40.429 44.93,40.601    44.93,41.094 45.571,41.218 45.562,41.718 45.595,41.743 45.829,42.853 45.892,42.954 46.119,43.141 46.157,43.227 46.493,43.517    46.478,44.166 46.697,44.564 46.697,44.705 47.072,45.198 47.158,45.604 47.252,45.751 47.275,45.884 47.752,46.471 47.916,46.542    48.08,46.699 48.143,46.987 47.963,47.143 47.768,47.518 47.87,48.371 48.128,48.496 48.283,48.715 48.456,49.277 48.722,49.426    49.12,49.41 49.229,49.309 50.19,49.247 50.237,48.878 50.3,48.816 50.3,48.699 50.128,48.528 50.19,48.402 50.37,48.269    50.37,48.175 50.503,48.035 50.816,47.996 51.059,47.713 51.199,47.713 51.348,47.66 52.207,47.66 52.247,47.816 52.465,48.035    52.653,47.667 52.778,47.542 52.903,47.285 52.935,47.042 53.2,46.792 53.2,46.659 53.475,46.299 53.497,46.057 53.567,45.987    53.591,45.198 53.653,45.198 53.747,44.994 53.708,44.228 53.607,44.033 53.786,44.017 53.786,43.384 53.911,43.126 53.825,42.891    53.786,42.853 53.911,42.735 53.95,42.618 53.795,42.454 54.177,42.407 54.427,42.157 54.639,42.196 54.982,42.102 55.24,41.804    55.217,41.648 55.256,41.609 55.358,41.656 55.459,41.789 55.459,41.922 56.272,41.148 56.045,40.899 55.99,40.718 56.147,40.718    56.147,40.937 56.366,41.078 56.601,41.039 56.506,40.828 56.319,40.704 56.319,40.616 56.624,40.273 56.874,40.225 57.241,39.655    56.937,39.264 56.718,39.163 56.303,38.733 56.319,38.6 55.936,38.428 55.749,38.233 55.562,38.233 55.037,37.857 54.576,37.787    54.576,36.623 54.521,36.467 54.529,35.638 54.834,35.254 54.779,35.067 54.904,34.949 54.904,34.786 55.053,34.637 55.053,34.379    55.163,34.2 54.936,34.051 55.013,33.628 55.475,33.589 55.615,33.511 55.709,32.832 55.632,32.628 55.89,32.91 56.248,32.792    56.468,32.496 56.679,32.409 56.741,32.229 56.96,32.002 57.437,31.917 58.327,31.229 58.46,31.229 58.688,31.033 58.898,30.979    59.18,30.737 59.61,30.564 59.837,30.564 59.86,30.432 60.071,30.221 60.071,30.111 61.017,29.048 61.025,28.946 60.985,28.806    60.618,28.455 60.524,28.212 60.603,28.212 60.696,27.993 61.017,27.719 61.096,27.32 61.204,27.211 61.235,27 61.188,26.907    61.299,26.797 61.533,26.797 61.704,26.617 61.704,26.468 61.83,26.343 62.025,26.343 62.205,26.265 62.205,26.132 62.306,25.859    62.722,25.898 62.722,25.812 62.861,25.719 62.963,25.719 63.08,25.835 63.283,25.93 65.402,25.827 65.62,26.047 65.809,26.047    65.926,26.164 66.066,26.148 66.324,26.43 66.59,26.508 66.63,26.922 66.551,27.235 66.605,27.493 66.785,27.688 66.785,27.79    66.684,27.946 66.66,28.079 65.948,28.079 65.848,28.172 65.715,28.235 64.097,29.994 63.894,30.064 63.807,30.143 63.792,30.284    63.674,30.4 63.511,30.384 63.283,30.487 63.058,30.917 62.689,31.018 62.58,30.94 62.306,31.268 62.306,31.761 62.221,31.847    62.025,31.94 61.158,31.925 61.033,32.143 60.963,32.628 60.759,32.707 60.563,33.02 60.563,33.949 60.728,34.043 60.728,34.16    60.768,34.285 60.768,35.051 60.985,35.207 61.158,35.825 61.063,35.926 61.118,36.294 61.025,36.396 61.04,36.724 60.923,36.841    60.806,37.577 60.876,37.826 60.985,37.943 61.337,38.108 61.509,38.287 61.893,38.287 61.97,38.366 62.501,38.521 62.58,38.608    62.486,38.874 63.08,38.834 63.08,38.89 63.15,38.959 63.159,39.045 63.494,39.381 65.558,39.273 65.558,39.17 65.918,38.928    66.372,38.952 67.254,38.577 67.364,38.639 67.739,38.592 67.777,38.554 67.919,38.554 68.451,38.287 68.661,38.358 70.451,38.264    75.563,33.473 75.86,32.761 75.86,32.55 73.617,30.775 74.118,30.439 74.414,29.916 74.43,29.735 73.64,29.041 73.64,28.712    73.734,28.587 73.734,28.415 73.187,28.055 73.023,27.743 73.266,27.469 73.266,27.328 73.187,27.242 73.359,26.132 73.812,26.094    73.812,25.632 72.265,23.146 72.272,22.998 73.484,21.419 73.562,21.2 73.555,21.091 72.39,19.989 72.054,19.902 71.562,19.395    71.42,19.075 71.42,18.847 71.702,18.582 71.663,18.042 71.569,17.94 71.679,17.761 71.866,17.761 71.991,17.519 72.335,17.519    72.688,17.167 72.843,16.808 73.046,16.808 73.125,16.729 73.484,16.729 73.953,16.159 74.156,16.026 74.493,16.284 74.867,16.299    74.962,16.205 74.907,15.87 75.087,15.69 74.884,15.479 74.728,15.635 74.414,15.713 74.188,15.455 74,15.635 73.297,15.635    73.297,15.439 72.969,15.119 72.788,15.119 72.555,14.908 72.351,14.884 71.96,14.705 72.297,14.603 72.633,14.76 73.977,14.76    74.493,14.29 74.75,14.29 75.062,14.173 75.203,14.173 75.008,13.978 75.008,13.665 74.251,13.524 73.772,13.15 72.734,13.15    72.766,12.938 72.585,12.759 71.858,12.734 71.476,13.071 71.476,13.25 71.14,13.978 71.14,13.798 70.92,13.696 70.92,13.446    70.826,13.36 70.983,13.204 70.904,13.125 70.608,13.125 70.608,12.954 70.983,12.68 71.42,12.579 71.319,12.477 71.319,12.321    71.084,12.321 71.084,12.085 70.771,12.085 70.584,12.18 70.076,12.188 69.896,12.266 69.794,12.375 69.771,12.579 69.857,12.899    69.514,13.172 69.365,13.501 69.365,13.649 69.225,13.641 69.154,13.704 69.045,13.641 68.685,13.899 68.528,13.899 68.544,13.243    68.661,13.125 68.685,12.422 68.584,12.563 68.411,12.563 68.193,12.79 68.028,12.774 66.926,13.853 66.809,14.455 66.7,14.572    66.372,14.588 66.285,14.493 66.254,14.282 66.372,14.157 66.372,13.836 66.488,13.72 66.387,13.587 66.63,13.524 67.184,12.938    67.316,12.938 67.497,12.477 68.005,12.485 67.52,12 67.129,12 66.996,12.258 67.161,12.422 66.863,12.516 66.746,12.634    66.567,12.634 66.332,12.501 66.332,12.375 66.106,12.375 65.637,12.579 65.637,12.734 65.48,12.97 65.637,12.97 65.637,13.25    65.097,13.25 65.145,13.696 64.393,13.744 64.269,13.876 64.167,14.189 63.611,14.493 63.611,14.666 63.776,14.837 63.432,14.947    63.096,14.681 63.096,14.431 62.979,14.314 62.979,14.032 62.619,14.212 62.486,14.345 62.229,14.47 61.837,14.306 61.635,14.393    61.299,14.267 60.806,14.267 60.806,14.415 61.142,14.548 61.432,14.837 61.689,14.861 61.689,15.041 61.502,15.299 61.502,15.174    61.142,15.197 60.915,14.962 60.626,15.064 60.579,15.455 60.313,15.455 60.148,15.291 59.695,15.846 59.853,16.119 59.688,16.119    58.726,16.737 59,16.463 59,16.339 59.234,16.127 59.234,15.948 59.359,15.823 59.359,15.252 58.586,15.69 58.469,15.885    58.586,16.002 58.305,16.385 58.069,16.463 58.148,16.385 58.281,15.706 57.538,15.706 57.397,15.846 57.296,16.127 57.296,16.362    57.632,16.714 57.39,16.714 57.093,16.417 56.96,16.159 56.96,15.674 56.562,15.674 56.343,15.893 56.343,16.127 56.624,16.362    56.601,16.518 56.882,16.808 56.601,16.808 56.506,16.948 55.929,16.362 55.646,16.362 55.646,16.205 55.795,15.971 55.217,16.198    55.021,16.385 54.795,16.385 54.537,16.651 54.186,16.792 54.481,17.088 54.303,17.269 54.459,17.479 54.857,17.464 55.123,17.191    55.429,17.331 55.154,17.604 55.123,17.917 55.256,18.05 55.318,18.246 55.123,18.434 54.646,18.214 54.427,18.434 54.028,18.629    53.865,18.801 53.966,19.004 54.607,19.129 54.717,19.02 55.193,19.02 54.896,19.316 54.795,19.316 54.685,19.418 54.685,19.527    54.459,19.34 54.123,19.34 53.591,19.16 53.591,19.434 53.755,19.606 53.349,20.122 53.372,20.403 53.121,20.442 52.981,20.301    52.981,19.809 52.677,19.809 52.34,20.145 52.622,20.458 52.419,20.56 52.106,20.56 51.77,20.403 51.535,20.481 51.457,20.56    51.355,20.771 51.082,21.029 51.566,21.052 51.746,20.872 52.207,20.95 52.364,21.107 52.262,21.208 51.902,21.208 51.793,21.317    52.052,21.575 52.277,21.575 52.364,21.778 51.746,21.732 51.371,21.56 51.255,21.677 50.581,21.911 50.996,22.146 52.521,22.193    51.849,22.482 51.691,22.482 51.388,22.302 50.776,22.342 50.401,22.717 50.003,22.779 49.378,23.295 49.456,23.374 49.01,23.78    49.112,24.006 48.877,24.241 48.619,24.241 48.58,24.413 48.8,24.632 49.722,24.562 49.346,24.89 48.44,24.968 48.573,25.632    48.494,25.554 48.198,25.554 47.933,25.671 47.933,25.812 47.768,25.976 47.604,26.015 47.486,26.132 47.564,26.391 47.744,26.391    47.822,26.704 47.689,26.704 47.454,26.617 47.346,26.617 47.072,26.883 47.252,27.071 47.533,27.071 47.533,27.25 47.713,27.25    48.088,27.132 47.635,27.641 46.478,27.688 46.478,28.024 46.603,28.157 46.307,28.243 46.142,28.415 46.142,28.571 46.399,28.806    46.196,29.009 46.142,29.22 45.86,29.22 45.649,29.009 45.134,29.009 45.056,29.22 44.821,29.244 44.734,29.462 44.539,29.658    44.336,29.658 44.125,29.868 44.203,30.072 44.203,30.268 44.008,30.268 43.633,30.643 43.781,30.791 43.664,30.9 43.789,31.213    43.969,31.245 44.078,31.135 44.305,31.135 44.485,30.955 44.618,30.955 44.898,30.861 45.039,30.861 45.251,30.658 44.977,30.384    45.29,30.384 45.751,30.025 46.063,30.025 46.024,30.221 45.728,30.307 45.548,30.542 45.728,30.721 45.728,30.838 45.329,30.838    45.079,31.088 45.118,31.229 45.234,31.346 45.157,31.502 44.157,31.448 44.117,31.643 44,31.761 43.688,31.807 43.688,31.471    43.43,31.213 43.234,31.128 42.522,31.838 42.522,31.502 42.452,31.581 42.038,31.581 41.827,31.917 41.827,32.175 41.647,32.175    41.546,32.354 42.008,32.824 41.592,32.683 41.374,32.683 41.21,32.511 41.03,32.511 41.521,33.003 41.521,33.238 41.154,32.871    40.928,32.871 40.718,32.667 40.718,32.456 40.515,32.456 40.357,32.589 39.505,32.589 39.467,32.784 39.686,33.003 39.998,33.003    40.412,33.183 40.123,33.473 39.662,33.473 39.294,33.34 38.653,33.441 39.014,33.691 39.263,33.691 39.779,34.285 39.63,34.425    39.63,34.2 38.646,33.738 38.778,33.887 38.575,33.887 38.575,34.277 38.442,34.145 38.099,34.105 37.927,34.277 38.263,34.613    37.388,34.583 37.113,34.856 37.669,35.129 37.802,35.254 36.574,35.387 36.574,35.606 36.949,35.981  "></polygon><polygon points="79.013,25.352 79.013,23.554 78.989,23.578  "></polygon><polygon points="79.013,23.554 79.114,23.452 79.013,23.554  "></polygon><polygon points="95.521,55.094 95.654,54.969 95.467,55.094  "></polygon><polygon points="93.216,22.186 93.138,22.272 93.161,22.484 93.364,22.733 93.396,22.85 93.325,23.022 93.091,23.101 91.77,22.913    91.715,23.022 91.715,23.14 91.84,23.171 92.138,23.429 92.363,23.25 92.474,23.233 92.661,23.319 93.435,23.319 93.583,23.257    93.716,23.257 93.826,23.374 93.903,23.374 94.263,23.71 94.326,23.727 94.529,23.437 94.561,23.304 94.708,23.148 95.154,23.319    95.264,23.319 95.568,23.132 96.233,23.148 96.404,23.21 96.624,23.21 96.89,22.999 96.89,22.945 96.835,22.804 96.491,22.529    96.351,22.529 96.006,22.405 96.006,22.334 95.725,22.28 95.592,22.147 95.592,22.045 95.529,21.983 94.342,21.717 94.138,21.764    93.989,21.905 93.561,21.905 93.31,21.686 93.021,21.615 92.919,21.717 92.739,21.764 92.676,21.835 92.676,22.014 92.911,22.014     "></polygon><polygon points="83.163,19.896 83.171,20.029 83.578,19.763 84.227,19.591 84.727,19.247 85.532,19.349 85.493,19.49    85.282,19.638 85.907,19.724 85.978,19.793 86.135,19.856 86.454,19.786 86.626,19.849 87.079,20.216 87.736,20.357 87.994,20.31    88.104,20.419 88.151,20.56 88.151,20.795 88.487,21.1 89.065,21.091 89.354,21.193 89.464,21.303 89.354,21.459 89.12,21.545    88.933,21.74 89.05,21.858 89.432,21.803 89.589,21.709 90.987,21.835 91.113,21.795 91.315,21.584 91.793,21.584 91.91,21.467    91.793,21.349 91.613,21.303 91.48,21.146 91.012,20.991 90.691,20.991 90.542,20.842 90.542,20.725 90.019,20.615 89.815,20.396    89.526,20.302 89.284,20.114 89.222,20.091 89.183,20.06 88.558,19.896 88.447,19.793 87.658,19.521 87.455,19.521 87.057,19.083    86.596,19.012 86.393,18.888 85.837,18.816 85.61,18.888 85.157,18.809 83.327,19.38 83.101,19.669 83.219,19.786  "></polygon></g></svg>