<svg xmlns="http://www.w3.org/2000/svg" xmlns:xlink="http://www.w3.org/1999/xlink" version="1.1" x="0px" y="0px" viewBox="0 0 100 125" style="fill:#ffffff enable-background:new 0 0 100 100;" xml:space="preserve"><path d="M93,69.6l-0.3-0.9l-0.3-0.6l-0.5-0.6l-0.4,0.6v0.8l-0.8,1l-0.5-0.2l0.2,0.6L90,71l-1.1,0.8l-0.7,0.8h-0.6l-0.5,0.2l-0.7,0.3  h-0.6L85.6,74l-0.5,0.8l0.1,1.2l0.2,0.9l0.3,0.6l-0.1,0.9l-0.6,1v0.5l-0.6,0.2l-0.2,1l0.1,1l0.5,1.1l0.1,1.3l0.4,0.7  c0.6,0.3,1.2,0.6,1.8,0.9l1.1-0.6l1-0.3l0.6-1.6c0.7-2.7,1.6-5.4,2.4-8.1l0.1-1.1l0.4-0.3l0.1-0.6l-0.2-1l0.2-0.4l0.4,0.8l0.2-0.4  l0.1-0.6l-0.3-0.6L93,69.6z M93.9,36.4l-0.6,0.5L92.5,37L92,37.2h-1.1l-0.5,0.2l-0.6,0.1L88.6,38l-1.4,0.2L86,38.5h-0.6L84.8,38  l-0.3-0.5l-0.4-0.2L83.6,38l-0.3-0.2L83,37.7h-0.7v-0.4l-0.1-0.4c0.3-0.4,0.6-0.8,0.9-1.2l0.6,0.1l0.4-0.3l-0.6-0.4  c-0.6-0.7-1.2-1.3-1.8-2l-1.8-1.3L79,31.2L78.7,30L78,28.4c-0.4-0.3-0.8-0.6-1.2-0.8L76.3,26l-0.2-1.4l0.3-0.3L76,22.9l-0.2-0.3  l-1.5-1.3v-0.9l0.3-0.2l-1.2-1.6L73,17.8L72.5,17l-1-2.3l-0.8-1.5l-0.5-1.6l0.1-0.1l0.9,2.1c0.3,0.4,0.7,0.8,1,1.1l0.3-0.3l0.4-0.8  l0.3-1.1l0.4-0.6c-0.3-0.9-0.6-1.7-0.8-2.6L72,10l-1-0.1l-1-0.4L69.6,10l-0.4-0.7l-0.9-0.2l-1.1,0.1l-0.5,0.4l-1,0.5  c-1-0.4-2.1-0.7-3.1-1.1h-1.7l-0.3-0.5l-1.3-0.2L58.9,8h-0.5L58,7.3L56.3,7l-0.9,0.2l-1,0.8L54,8.8l0.3,1.2l-0.6,0.7L53,11l-1.4-0.7  l-1.8-0.6l-1.2-0.3L48.1,8l-1.7-0.7L45.3,7l-0.5,0.1l-1.5-0.5l-0.5-0.2l-0.3-0.7h-0.7l-0.2-0.8L42.3,4l0.2-1.4l-0.4-0.4V1.5l0.6-0.8  l-0.1-0.3L41.5,1V0.2L40.7,0l-1.4,0.7l-0.9,0.1l-0.5-0.4h-1.4L35.2,1l-0.7-0.2C33,0.9,31.6,1,30.2,1.2L29,1.7l-0.8,0.7l-1.4,0.3  l-1.2,0.9H25l-1.3-0.3l-1.2,0.1l-0.8-0.7h-0.9l-0.4,1l-0.9,1.6l-1,0.6l-1.3,0.7l-0.8,1l-0.2,0.8l-0.5,1.3l0.3,1.9l-1,1.1l-0.6,0.4  l-1,1l-1.2,0.2c-0.2,0.2-0.4,0.4-0.7,0.6l-0.8,1.5l-0.9,0.5l-0.5,0.9v0.8L9,19.4l-0.4,0.2l-0.7,0.9l-0.4,1L7.4,22L7,22.7l-0.5,0.4  c0,0.4-0.1,0.8-0.1,1.2L7,24.9l0.3,0.7l-0.1,0.7L7.4,27l0.1,1.3l-0.2,1.3L7,30.2l0.1,0.7l-0.3,0.7l-0.6,0.9l-0.6,0.3l0.6,0.5l0.5,1  l-0.2,0.6l0.2,1l0.1,0.3l0.4,0.3v0.2L7.6,37l0.5,0.1l0.7,0.6l0.4,0.2l0.2,0.3l0.1,0.6L9.9,39l0.3,0.2l0.5,0.5l0.6,0.8l0.2,1l0.2,0.5  l0.7,0.7l0.9,0.5l0.3,0.1l0.9,0.8l1.1,0.7l1.2,1l1.3,0.6h0.5c0.7-0.3,1.5-0.5,2.2-0.8l1.5-0.2h0.8l0.9,0.3h0.6l1.2,0.4l1.2-0.4  l0.7-0.4l2-0.8l1-0.3l1.1-0.2h2.1l0.9,0.9l0.4,0.9l0.7,0.8h1l0.5-0.3l0.5,0.1l1.3-0.5v0.4l0.3,0.2l0.3,0.6l0.6,0.2l0.5,0.9l-0.2,1  l-0.4,1.4l0.2,0.2c-0.2,0.6-0.4,1.3-0.6,1.9l-0.1,0.3v0.4l0.8,1.3l0.9,1.1l1.3,1.3l1.1,1.4l0.3,1l0.2,0.4l-0.1,0.3l0.6,0.8  c0.2,0.7,0.4,1.4,0.7,2.1l-0.4,0.5L45,63.8c0.2,0.5,0.4,1.1,0.7,1.6l0.4,0.5l0.1,0.7l-0.1,1l-0.4,0.6L45,69.1l-0.3,0.5l-0.4,1.2  L44,71.3l-0.4,1.2l-0.2,1.2c0.1,0.6,0.2,1.3,0.2,1.9l1,1.3l0.3,0.9l0.7,1.7l0.7,1.1l0.5,0.6L47,82v1.7l0.4,2.2l0.3,1l0.3,1.4  l0.5,1.1l1,1.1c0.8,1.6,1.5,3.1,2.4,4.6v1.2l-0.4,0.3l0.4,1v0.9l0.2,0.4l0.1-0.2l0.6,0.7h0.4l0.5,0.6h0.6l0.8-0.6l1.1-0.2l1.3-0.6  l0.5,0.1l0.8-0.2l1.4,0.3l0.6-0.3l0.8,0.2l0.2-0.4l0.7-0.1l1.3-0.6l1-0.7c0.8-0.8,1.6-1.6,2.4-2.5l0.7-1.1l0.4-0.8l0.5-0.8  c0.4-0.3,0.8-0.6,1.1-1l0.3-0.7l0.2-1.2l0.3-1.1l0.1-0.8h-0.3l-0.1-0.6l0.6-0.5c0.9-0.4,1.7-0.9,2.6-1.3l0.5-0.5l0.2-0.6L74,83.2  l0.2-0.7v-1.4L74,81.2v-0.4L73.7,80l-0.6-1l0.1-1l0.5-0.3l0.9-1l0.5-0.2l1.5-1.5c0.9-0.4,1.8-0.8,2.6-1.2L80,73l0.5-0.9l0.4-1  l-0.2-0.7l-0.1-2.1l-0.2-1.2l0.1-1.3l-0.2-0.6l-0.5-0.3l-0.5-1.3l-0.4-0.7l0.1-0.6v-0.4l0.4-0.8v-0.3l-0.8-0.5l-0.1-0.7l0.6-1.6  l0.5-0.4l0.3-0.9l0.4-0.5l0.2-0.9l0.5-0.1l0.3-0.5l0.9-0.5l0.3-0.3l0.3-0.7l1.4-1.6l1.2-1l1.9-1.3l1.3-1c0.9-1.1,1.8-2.1,2.6-3.2  l1.1-1.9c0.5-1,1-2.1,1.4-3.1l0.4-1.4l0.3-0.5v-1.9H93.9z"/></svg>